<svg xmlns="http://www.w3.org/2000/svg" width="112" height="105.447" viewBox="0 0 112 105.447">
  <g id="icon_sabotage" transform="translate(0 0)">
    <path id="Path_371" data-name="Path 371" d="M30.4,72.14c0-.216,0-.414,0-.613.042-4.163.092-8.325.116-12.488,0-.475.137-.658.621-.725,2.786-.385,5.565-.818,8.352-1.2.448-.061.568-.226.664-.652.262-1.152.615-2.283.932-3.422.147-.529.4-.616.857-.269,2.9,2.2,5.811,4.372,8.709,6.567.592.448,1.141.952,1.718,1.421a1.234,1.234,0,0,1,.486,1.211,25.775,25.775,0,0,0-.329,3.537c.176,10.7,4.79,18.89,13.975,24.428a27.15,27.15,0,0,0,8.243,3.106,25.691,25.691,0,0,0,11.305-.093,26.74,26.74,0,0,0,12.267-6.214,28.1,28.1,0,0,0,7.5-10.344,27.462,27.462,0,0,0,1.886-12.924,27.151,27.151,0,0,0-4.788-13.2,27.789,27.789,0,0,0-10.383-8.973,25.5,25.5,0,0,0-10.989-2.836c-1.387-.049-2.776-.025-4.161-.09a1.389,1.389,0,0,1-.918-.412q-4.445-5.36-8.838-10.762c-.393-.481-.274-.756.456-.986.995-.314,1.991-.631,3-.886a1.191,1.191,0,0,0,.995-1.113c.372-2.687.771-5.369,1.122-8.059.062-.478.245-.594.686-.589q6.274.065,12.548.1c.5,0,.725.127.84.677.583,2.79,1.234,5.565,1.846,8.349a.761.761,0,0,0,.6.646,61.31,61.31,0,0,1,13.438,5.694.872.872,0,0,0,1.134-.088c2.021-1.623,4.056-3.228,6.087-4.839l.914-.727,9.608,9.671c-.394.484-.853,1.04-1.305,1.6-1.35,1.673-2.667,3.374-4.06,5.01a1.388,1.388,0,0,0-.146,1.79,54.419,54.419,0,0,1,2.541,4.917c1.032,2.5,1.9,5.067,2.761,7.632a1.452,1.452,0,0,0,1.216,1.073c1.222.237,2.449.449,3.679.643,1.469.232,2.939.459,4.414.634.484.057.59.256.593.688.014,2.132.058,4.263.077,6.395.019,2.031.021,4.062.03,6.093,0,.2,0,.4,0,.648-1.046.154-2.053.309-3.062.448-2.249.31-4.5.6-6.745.936a.94.94,0,0,0-.6.528c-.834,2.279-1.517,4.62-2.471,6.846-.938,2.188-2.127,4.27-3.236,6.384-.448.854-.487.837.141,1.6,1.721,2.1,3.436,4.2,5.174,6.282.3.364.333.593-.024.946q-4.411,4.371-8.783,8.78c-.355.359-.564.334-.934.032-2.115-1.731-4.268-3.416-6.373-5.158a1.208,1.208,0,0,0-1.528-.124c-1.649.874-3.256,1.856-4.975,2.561-2.556,1.049-5.187,1.921-7.8,2.815a1.261,1.261,0,0,0-.962,1.019q-.444,2.459-.838,4.927c-.179,1.131-.329,2.267-.464,3.4-.058.481-.366.5-.731.5-2.755.029-5.51.066-8.265.094-1.448.015-2.9,0-4.344.03-.448.008-.614-.123-.68-.594-.395-2.845-.837-5.683-1.246-8.527a.723.723,0,0,0-.562-.662c-2.882-1.048-5.784-2.054-8.617-3.223A51.106,51.106,0,0,1,57.9,99.5a.88.88,0,0,0-1.166.094c-2.142,1.793-4.314,3.549-6.47,5.326-.287.237-.5.408-.85.048-2.835-2.93-5.7-5.833-8.525-8.772-.748-.778-.625-.622-.033-1.358q2.494-3.1,5.024-6.171a.756.756,0,0,0,.09-1.011,60.866,60.866,0,0,1-4.45-9.4c-.448-1.245-.839-2.511-1.232-3.776a1.307,1.307,0,0,0-1.213-1.044c-2.728-.358-5.449-.78-8.171-1.181-.155-.023-.307-.07-.507-.117" transform="translate(-18.699 -9.571)" fill="#d91c1c"/>
    <path id="Path_372" data-name="Path 372" d="M92.7,68.491c-.81-1.092-1.63-2.179-2.431-3.28q-2.855-3.923-5.694-7.857a4.594,4.594,0,0,0-5.114-2.061,2.546,2.546,0,0,0-.835.329c-2.367,1.59-4.734,3.179-7.074,4.807a3.773,3.773,0,0,0-1.086,3.624,11.409,11.409,0,0,0,2,3.611c2.112,3.177,4.281,6.317,6.425,9.474.12.177.222.366.387.638a5.175,5.175,0,0,1-.89.167,17.589,17.589,0,0,1-12.6-4.722,16.42,16.42,0,0,1-4.9-9.073,19.192,19.192,0,0,1,.555-9.054,1.2,1.2,0,0,0-.228-1.279c-.885-.957-1.694-1.992-2.635-2.889Q43.507,36.551,28.4,22.21c-1.776-1.69-3.535-3.4-5.259-5.14a5.126,5.126,0,0,1-1.328-5.112A5.613,5.613,0,0,1,23.3,9.314c1.038-1.062,2.047-2.156,3.125-3.176a5.624,5.624,0,0,1,6.056-1.123,8.4,8.4,0,0,1,3.39,2.331q15.34,15.988,30.658,32c1.76,1.843,3.382,3.818,5.094,5.708a.967.967,0,0,0,.769.242,25.437,25.437,0,0,1,6.535-.424,16.51,16.51,0,0,1,7.94,2.711,15.859,15.859,0,0,1,7.027,9.715,16.723,16.723,0,0,1,.4,5.867,15.849,15.849,0,0,1-1.2,4.947,2,2,0,0,1-.137.262c-.018.028-.069.037-.246.122" transform="translate(-13.302 -2.833)" fill="#d91c1c"/>
    <path id="Path_373" data-name="Path 373" d="M15.059,94.479.666,100.142C.443,96.94.227,93.851,0,90.587l15.059,3.681c0,.07,0,.14,0,.211" transform="translate(0 -55.727)" fill="#d91c1c"/>
    <path id="Path_374" data-name="Path 374" d="M85.343,2.824,94.411,0v15.48l-.145.074L85.343,2.824" transform="translate(-52.501 -0.001)" fill="#d91c1c"/>
    <path id="Path_375" data-name="Path 375" d="M31.43,72.46l-8.223-.973,2.785-5.368,5.525,6.139-.087.2" transform="translate(-14.276 -40.674)" fill="#d91c1c"/>
  </g>
</svg>
