<svg xmlns="http://www.w3.org/2000/svg" width="384" height="334" viewBox="0 0 384 334">
  <g id="image_bomb" transform="translate(0)">
    <path id="Path_376" data-name="Path 376" d="M104.371,163.466a27.4,27.4,0,1,0-27.4,27.329,27.366,27.366,0,0,0,27.4-27.329" transform="translate(-29.468 -81.09)" fill="#fff"/>
    <path id="Path_377" data-name="Path 377" d="M288.1,191.278c6.948-2.138,14.461-1.37,18.645,6.016.522,1.373,1.632.889,2.589.786a105.913,105.913,0,0,1,37.782,2.38c19.634,5.016,35.992,15.51,49.632,30.193,13.608,14.648,21.387,32.213,24.509,51.861a96.96,96.96,0,0,1-1.8,40.017,101.583,101.583,0,0,1-15.64,33.565c-2.434,3.109-4.682,6.39-7.352,9.282a120.835,120.835,0,0,1-9.6,9.159,94.8,94.8,0,0,1-28.861,16.957c-1.607.61-3.107,1.543-4.747,2.012-3.318.947-6.7,1.676-10.051,2.5-.52.128-1.034.281-1.55.421a74.128,74.128,0,0,1-10.971,1.691,95.788,95.788,0,0,1-65.3-16.771c-11.276-7.618-21.07-16.732-28.581-28.094a100.229,100.229,0,0,1-14.575-36.611,98.542,98.542,0,0,1,1.383-43.93,113.807,113.807,0,0,1,6.2-17.38,30.037,30.037,0,0,0,3.431-6.284c1.782-3.945,4.471-7.264,6.923-10.729a92.564,92.564,0,0,1,29.086-26.3,2.807,2.807,0,0,1,1.838-.675l.631-4.254c-2.584-2.932-2.478-4.821.434-7.517a27.039,27.039,0,0,1,4.73-3.426,100.24,100.24,0,0,1,11.214-4.87" transform="translate(-131.032 -113.315)" fill="#fff"/>
    <path id="Path_378" data-name="Path 378" d="M107.059,176.952c1.844.307,1.846,1.917,2.234,3.213.317,1.056.395,2.029,1.924.982,1.331-.912,2.25.323,3.058,1.179.777.822,1.234,1.376,2.644.673,1.573-.785,3.243.374,4.714,1.151,1.039.549,1.672,1.535,2.851-.182.852-1.241,2.729-.618,4.171-.149,1.145.372,2.453,1.86,2.949-.875.226-1.244,2.018-1.057,3.214-1.132,1.51-.095,2.982.371,3.978-1.655.616-1.253,2.676-.989,4.147-1.058,1.542-.073,3.174.25,3.158-2.179-.005-.738.952-1.073,1.686-1.254,1.113-.275,2.23-.559,3.363-.728s1.925-.29,2.049-1.845c.113-1.416,1.776-1.679,2.936-2.117,1.128-.425,2.342-.623,3.514-.935.909-.243,1.754-.444,2.124-1.577.345-1.057,1.488-1.3,2.476-1.5,1.253-.259,2.524-.44,3.794-.6,1.139-.147,2.414,0,2.04-1.872-.159-.8.626-1.152,1.282-1.323,1.173-.306,2.369-.534,3.56-.767a8.943,8.943,0,0,0,4.735-2.01c1.372-1.268,3.308-.938,5.049-.823a5.516,5.516,0,0,0,4.215-.934c2.225-1.618,5.077-.876,7.563.178a6.348,6.348,0,0,0,3.645.734c2.18-.33,3.681,1.11,4.954,2.624a4.763,4.763,0,0,0,2.957,1.845A5.115,5.115,0,0,1,212.287,169a1.9,1.9,0,0,0,1.452,2.034c1.42.507,1.971,1.957,2.534,3.245.721,1.652,1.345,3.346,2.011,5.022.346.422.681.6,1.152.113,1.51-1.562,3.547-2.336,5.338-3.479.541-.346,1.245-.5,1.261-1.406-2.54,0-4.116,2.087-6.284,2.828-1.488-1.02-1.442-2.78-1.969-4.239-.218-.6.507-1.038,1.117-1.226,6.948-2.138,14.461-1.369,18.645,6.016.522,1.373,1.633.889,2.59.786a105.911,105.911,0,0,1,37.782,2.38c19.634,5.016,35.992,15.511,49.633,30.193,13.608,14.648,21.386,32.213,24.509,51.862a96.96,96.96,0,0,1-1.8,40.017,101.579,101.579,0,0,1-15.64,33.565c-2.434,3.109-4.682,6.39-7.352,9.282a120.829,120.829,0,0,1-9.6,9.159,94.8,94.8,0,0,1-28.862,16.957c-1.606.61-3.107,1.543-4.747,2.012-3.318.947-6.7,1.676-10.051,2.5-.52.128-1.034.281-1.549.421a74.187,74.187,0,0,1-10.971,1.692,95.791,95.791,0,0,1-65.3-16.772c-11.275-7.618-21.07-16.732-28.58-28.094a100.22,100.22,0,0,1-14.575-36.611,98.54,98.54,0,0,1,1.382-43.93,113.8,113.8,0,0,1,6.2-17.381,30.075,30.075,0,0,0,3.431-6.284c1.782-3.945,4.471-7.264,6.923-10.729a92.56,92.56,0,0,1,29.087-26.3,2.807,2.807,0,0,1,1.838-.675c.264,1.313.582,2.618.784,3.941.691,4.529.676,4.531-3.485,6.392a4.218,4.218,0,0,0,2.5-.161c2.394-1.3,1.716,1.3,2.478,2.023.812.771.5,1.389-.675,1.55a.669.669,0,0,0-.624.849.627.627,0,0,0,.871.287c1.508-.593,3.144-.336,5.05-.676a4.16,4.16,0,0,1-1.46-2.552c-.921-3.54-.843-7.221-1.572-10.77-.365-1.777.164-2.088,1.74-2.08a41.858,41.858,0,0,0,17.537-4.161c1.476-.667,2.682-1.878,4.415-2.107a25.348,25.348,0,0,1-7.755,6.846c3.576.017,5.938-2.767,9.052-3.852-2.138,3.471-5.317,5.695-8.7,7.779,3.746-.073,6.442-2.778,9.743-4.118.2,1.048-.48,1.418-.891,1.874a29.068,29.068,0,0,1-6.928,5.485c-.312.184-.959.186-.739.733.273.678.743.154,1.153.034a27.814,27.814,0,0,0,6.069-3.129c.566-.331,1.016-1.152,2.151-.607a35.035,35.035,0,0,1-7.82,7.588c2.219.3,3.6-1.181,5.3-1.7.424-.129.819-.669,1.26-.218.393.4.084.917-.163,1.274-.823,1.189-.294,1.459.885,1.543,2.153.154,4.3.4,6.449.615,2.9.29,5.791.586,8.77.888-.26-.609-.665-.609-1.055-.721a83.44,83.44,0,0,0-10.7-2.023c-.443-.068-1.019-.007-1.122-.615-.084-.495.43-.645.727-.872a38.149,38.149,0,0,0,5.406-4.525,1.411,1.411,0,0,1,1.265-.484c3.152.325,6.309.617,9.452,1.016a7.542,7.542,0,0,0,2.955.118,48.572,48.572,0,0,0-7.647-2.3c-1.777-.347-3.125-.639-4.337-2.865-2.252-4.136-4.927-8.134-7.54-12.116-.663-1.01-1.115-1.224-2.1-.314a34.458,34.458,0,0,1-18.032,8.876c-4.033.662-8.187,1.233-12.037-1-2.584-2.932-2.478-4.821.435-7.517a27.023,27.023,0,0,1,4.73-3.426c1.175-.691,2.007-.994,2.758.459a1.164,1.164,0,0,0,1.36.776c-.238-3.01-2.1-5.156-3.969-7.228-6.612-7.324-14.719-9.033-24.1-6.517s-17.533,7.5-25.856,12.178c-6.975,3.925-13.856,8.039-21.481,10.661-.753.259-1.521.474-2.28.71-9.913,2.884-19.277,2.648-27.464-4.675-3.591-3.212-3.623-3.361.408-6.173M252.065,264.7l0-.065-.024.034c-1.374-.761-2.471-2.425-4.585-1.5,1.529,1.033,3.311.54,4.613,1.53m-18.579-39.791a1.911,1.911,0,0,1-2.091-.177c.725-.168,1.488-.765,2.117.215.421.648,1.111.683,1.773.92,2.011.719,4.211.173,5.843.835-.258-.168-.865.652-1.526.091a7.111,7.111,0,0,0-5.048-1.422c-.4.011-1,.339-1.068-.462m92.308,81.261a.4.4,0,0,1,.32.546c-.011.038-.124.093-.15.076-.236-.146-.336-.335-.145-.59a.48.48,0,0,1-.485-.506,17.628,17.628,0,0,0-2.288-7.781c.461.39.256.968.375,1.469a22.009,22.009,0,0,0,2.374,6.785m-36.188-93.193c-5.417-2.315-10.278-5.75-15.819-7.813-2.218-.826-4.2-2.346-6.949-2.314,3.545,1.744,6.94,3.321,10.244,5.067a41.21,41.21,0,0,1,9.492,6.312A111.81,111.81,0,0,0,258.8,205.2a2.039,2.039,0,0,0,.951.757,6.57,6.57,0,0,0,.952.339,57.36,57.36,0,0,1,17.3,8.482c.4.272.991.464.731,1-.3.622-.833.3-1.34.076a110.423,110.423,0,0,0-21.31-6.826c-2.271-.492-4.6-1.3-7.334-.87,18.385,7.2,31.163,13.885,32.359,17.074a150.37,150.37,0,0,0-16.836-7.507c-5.932-2.285-15.59-4.577-18.082-4,9.833,3.036,18.865,7.167,26.906,13.7a2.157,2.157,0,0,1-2.165-.216q-5.237-2.369-10.472-4.743c-4.464-2.027-4.463-2.029-6.553-1.642a57.287,57.287,0,0,1,17.127,11.224.934.934,0,0,1-.872.1,78.363,78.363,0,0,0-13.866-6.5c-2.367-.867-4.683-2.213-7.793-1.752,8.354,3.079,16.113,6.419,22.043,12.9-4.6-1.183-8.607-4.152-13.526-4.337a50.377,50.377,0,0,1,4.969,2.935c1.577,1.032,3.183,2.03,4.68,3.17,1.477,1.124,3.132,2.08,4.177,3.731-4.321-1.559-8.018-4.572-12.725-5.114,15.793,8.761,30.446,18.993,42.84,32.286.679-1.25-.4-1.821-.9-2.475-1.544-2.014-3.211-3.935-4.836-5.887-.229-.275-.454-.579-.12-.858s.575.016.841.242c.707.6,1.327,1.281,2.061,1.87a79.582,79.582,0,0,1,15.795,17.771,5.527,5.527,0,0,0-1.011-3.466c-3.683-5.368-7.7-10.488-11.671-15.636-.216-.279-.695-.578-.207-.991a.674.674,0,0,1,.926.048c2.726,2.667,6.242,4.449,8.527,7.614,1.813,2.511,3.671,4.988,5.51,7.481-1.84-4.791-5.373-8.583-7.519-13.224a82.416,82.416,0,0,1,11.856,12.938c-1.109-3.968-3.627-7.147-5.859-10.5-2.281-3.432-5.545-6.189-7.2-10.235,4.351,1.478,20.81,22.759,21.953,28.689.631-1.708-.408-3.357-1.351-4.976-.337-.578-.626-1.162-.925-1.755-3.257-6.448-5.643-13.317-9.723-19.381a14.737,14.737,0,0,1-2.639-5.685c4.811,4.316,8.2,9.7,11.608,15.156a3.353,3.353,0,0,0-.089-2.015,137.139,137.139,0,0,0-8.665-17.932c-.193-.323-.72-.561-.318-.955.369-.362.741.008,1.009.3.451.5.889,1.006,1.3,1.531a154.834,154.834,0,0,1,9.324,12.9,5.353,5.353,0,0,0-.353-2.547,66.225,66.225,0,0,0-4.5-8.1c-1.367-2.154-2.8-4.263-4.169-6.417-.289-.457-.981-1.071-.337-1.547.561-.414.847.414,1.194.771.64.66,1.261,1.338,1.89,2.008-3.093-6.185-8.423-10.554-12.893-15.627,2.5,1.208,4.231,3.372,6.58,4.735-2.377-3.53-5.451-6.411-8.221-9.573a125.8,125.8,0,0,1,17.69,17.595,2.315,2.315,0,0,0-.671-1.991,105.872,105.872,0,0,0-41.914-35.355,19.225,19.225,0,0,0-7.777-2.23,128.448,128.448,0,0,1,26.792,16.814c-.294.416-.452.212-.6.1a77.816,77.816,0,0,0-9.6-6.15c-1.225-.66-1.234-.643-1.778.093l-.37.366M271.33,195.844c23.637,8.6,42.084,24.249,58.769,42.343a34.8,34.8,0,0,0-4.751-6.83A132.551,132.551,0,0,0,299.6,207.909a72.042,72.042,0,0,0-28.273-12.065M241.4,365.487c-20.937-5.9-39.234-16.633-55.835-30.493,15.25,16.35,33.338,27.492,55.835,30.493m-31.819-4.152c-1.38-.322-2.429-1.645-3.772-2.469A108.907,108.907,0,0,1,185.9,342.548c-6.039-6.046-12.2-11.972-16.55-19.449-2.7-4.648-5.025-9.488-7.33-14.337-.214-.451-.307-1.184-.948-.924s-.087.775.07,1.18c.435,1.123.817,2.267,1.277,3.379,6.574,15.892,17.789,28.2,30.735,39.068a60.444,60.444,0,0,0,16.43,9.869m-5.307-20.019a131.863,131.863,0,0,1-29.594-35.02c6.519,14.506,16.872,25.785,29.594,35.02M314.985,214c-9.046-8.9-19.151-16.106-31.281-20.111,11.186,5.522,21.283,12.748,31.281,20.111m-13.1-15.986a77.125,77.125,0,0,1,12.749,9c3.957,3.3,7.577,6.971,11.45,10.387a1.176,1.176,0,0,0-.233-.762A85.1,85.1,0,0,0,305.1,198.6a4.21,4.21,0,0,0-3.214-.585m-10.751,66.971c-.462-3.462-15.567-15.382-19.808-16.034,6.665,5.063,13.734,9.562,19.808,16.034m-11.011,10.454a3.093,3.093,0,0,0-1.658-2.964c-1.233-.925-2.594-1.681-3.836-2.6-3.963-2.915-7.985-5.744-12.187-8.3-.928-.566-1.911-1.386-3.691-.689a83.881,83.881,0,0,1,21.372,14.553m3.691-12.049c-3.026-3.354-15.2-13.321-18.479-12.887,6.07,4.555,12.98,7.712,18.479,12.887m-79.494,70.139a226.473,226.473,0,0,1-16.956-18.05c4.645,6.971,9.861,13.4,16.956,18.05m59.14-77.576a3.566,3.566,0,0,0,1.885,1.9c1.961,1.125,4.14,1.934,5.813,3.482a71.158,71.158,0,0,0,7.006,5.389c.31.223.652.971,1.1.377.373-.5-.227-.872-.6-1.186-.255-.212-.548-.379-.79-.6-3.153-2.933-7.14-4.721-10.392-7.55a6.059,6.059,0,0,0-4.014-1.807m-34.635-35.829c-3.4-1.013-7.112.449-10.845-.066-1.85-.255-3.755.723-5.748.805-2.119.087-4.2.972-6.328,1.516.121.15.223.356.287.344a151.663,151.663,0,0,1,22.635-2.6m22.748-34.6c2.95,1.528,12.338,2.94,14.866,2.421a63,63,0,0,0-14.866-2.421m-20.1,156.806c2.79,2.167,6.123,3.5,9.362,5.011,1.183.552,2.871-.325,3.714,1.268a2.8,2.8,0,0,0,.141-.326.52.52,0,0,0-.018-.19c-1.814.7-2.286-1.276-3.517-1.766-3.243-1.293-6.457-2.659-9.682-4M160.231,249.66c-2.584,4.764-3.232,9.923-3.54,15.156.7-5.173,2.529-10.086,3.54-15.156m29.96-31.2.18.636,11.377-3.674-.162-.523c-3.994.544-7.664,2.153-11.4,3.562m149.7,57.609a2.51,2.51,0,0,0,.181-2.228c-.7-1.942-1.222-3.943-1.857-5.908-.142-.44-.017-1.317-.785-1.106-.631.173-.336.92-.186,1.38.852,2.612,1.749,5.21,2.647,7.862m-115.41-63.339c3.845.271,7.591.8,10.977.335-3.418-.385-7.188-1.932-10.977-.335m-59.634,40.225,4.141-8.765a12.025,12.025,0,0,0-4.141,8.765m81.314,96.058a27.59,27.59,0,0,0,9.8,2.527c-3.3-.7-6.309-2.564-9.8-2.527M246.3,359.2a28.969,28.969,0,0,0,10.985,2.227L246.3,359.2m25.014-74.574c-2.161-2.453-5.105-3.772-7.839-5.4,2.682,1.7,4.894,4.078,7.839,5.4m-11.355-91.6c-2.358-1.46-5.438-1.772-8.618-1.575-.013,0-.022.046-.034.071a41.128,41.128,0,0,0,8.651,1.5m-12.533,47.944q.05-.326.1-.651c-2.926-.617-5.747-1.878-9.253-1.442l9.153,2.093m29.8,114.122a32.09,32.09,0,0,0,8.068-.983c-2.878-.416-5.378,1-8.068.983m34.167-62.235a15.4,15.4,0,0,0-3.158-6.169,18.448,18.448,0,0,0,3.158,6.169M224.18,180.109c3.815-1.239,4.769-1.887,5.191-3.658a21.406,21.406,0,0,0-5.191,3.658m4.851,174.427c-2.064-1.045-4-2.42-6.381-2.659,2.123.9,3.98,2.46,6.381,2.659m59.225-72.985c-.858-1.577-2.135-2.337-3.1-3.387-.246-.269-.771-.448-1.026,0-.094.165.152.679.382.846,1.111.81,2.27,1.555,3.74,2.544m46.889,2.038c.383-2.491-1.216-3.656-1.9-5.2a19.979,19.979,0,0,0,1.9,5.2m-4.491,44.884c-.191-1.031.742-1.6.984-2.427a10.987,10.987,0,0,0,.164-2.51,14.335,14.335,0,0,0-1.148,4.937m5.366-25.291a19.12,19.12,0,0,0,.3,5.42,8.849,8.849,0,0,0-.3-5.42M197.487,208.439c1.079-.951,2.927-.219,3.708-1.725-1.186.729-2.846.352-3.708,1.725m57.244,159.2a5.577,5.577,0,0,0,4.227.195,7.55,7.55,0,0,0-4.227-.195M253.64,257.971c-1.436-1.268-3.025-1.188-4.417-1.629,1.4.476,2.261,2.22,4.417,1.629M289.5,276.264a7.155,7.155,0,0,0-3.326-3.157,11.459,11.459,0,0,0,3.326,3.157m-55.9-46.019a6.425,6.425,0,0,0,3.212.222,5.339,5.339,0,0,0-3.212-.222m-58.323,92.419c.224-1.578-.6-2.014-1.246-2.576,0,.932.549,1.539,1.246,2.576m105.5-47.738c-.045-.045-.1-.134-.133-.127a1.281,1.281,0,0,0-.272.127c.045.045.1.133.133.127a1.083,1.083,0,0,0,.272-.127" transform="translate(-61.829 -93.927)" fill="#141414"/>
    <path id="Path_379" data-name="Path 379" d="M67.507,135.288a99.975,99.975,0,0,1,2.94,10.467c.375,1.6,1.091,2.22,2.807,2.062a65.792,65.792,0,0,0,7.566-1.29c1.417-.3,1.542.223,1.158,1.363-.814,2.416-1.591,4.845-2.393,7.266-.823,2.488-.762,2.577,1.72,2.961.536.082,1.456-.254,1.484.592s-.916.564-1.442.688c-1.9.445-3.819.821-5.726,1.245-.521.116-1.087.461-1.543.078-.543-.455-.018-.986.137-1.454.633-1.911,1.217-3.845,1.983-5.7.59-1.431-.176-1.391-1.065-1.1-1.854.606-3.676,1.31-5.5,2-1.345.512-2.283.52-2.6-1.27a46.478,46.478,0,0,0-1.356-4.852c-.186-.633-.181-1.528-.871-1.715-.773-.21-1.021.708-1.387,1.2-1.035,1.4-2.016,2.847-2.986,4.3-.786,1.174-1.517,1.505-2.727.369-1.465-1.374-3.134-2.533-4.712-3.788-.308-.245-.618-.616-1.032-.437-.456.2-.292.7-.291,1.078.005,2.02-.028,4.044.086,6.058.079,1.393-.369,1.93-1.818,1.869-2.352-.1-4.71-.027-7.345-.027a25.151,25.151,0,0,0,3.756,5.426c1.564,2.007,1.607,2.051-.478,3.531-1.794,1.273-3.65,2.458-5.619,3.775,2.305,1.543,4.818,1.884,7.184,2.562,1.146.329,1.372.776,1.126,1.843a56.592,56.592,0,0,1-2.081,5.874c-.154.44-.529.913-.234,1.325.435.607,1,.065,1.463-.074,1.8-.544,3.6-1.112,5.368-1.766,1.46-.541,2.237-.256,2.571,1.387.375,1.839,1.037,3.617,1.5,5.44.322,1.263.762,1.531,1.626.392,1.259-1.658,2.591-3.265,3.784-4.969.781-1.115,1.4-1.128,2.38-.226,1.63,1.5,3.441,2.8,5.049,4.317,1.1,1.038,1.552.687,2.267-.411.662-1.015.986-2.342,2.432-3.134a19.392,19.392,0,0,1-.639,5.2c-.173.971-.337,1.945-.521,2.915-.282,1.488-1.123,1.668-2.274.892-1.092-.736-2.14-1.535-3.206-2.3-3.6-2.611-3.6-2.611-5.751.209-1.795,2.254-3.516,4.572-5.409,6.741-1.353,1.549-1.694,1.415-2.332-.471-.967-2.859-1.989-5.7-2.85-8.592-.36-1.207-.907-.783-1.633-.535-3.693,1.26-7.4,2.489-11.1,3.714-.476.158-1.015.613-1.467.018a1.527,1.527,0,0,1,0-1.547c1.43-3.538,2.376-7.259,4.094-10.691.663-1.324-.414-1.728-1.336-2.008-3.668-1.115-7.351-2.177-11.035-3.239-1.408-.406-1.218-1-.267-1.745a65.992,65.992,0,0,1,8.647-5.821c2.57-1.556,2.572-1.557.757-4.09-.271-.378-.566-.74-.849-1.109-1.553-1.984-3.139-3.944-4.642-5.966-.5-.676-1.325-1.467-.977-2.308.409-.989,1.552-.5,2.362-.5,1.672-.008,3.345.131,5.017.21,1.683.1,3.378.1,5.045.323,1.376.181,1.842-.327,1.812-1.62-.064-2.756-.083-5.513-.121-8.269-.014-.984-.075-1.971-.031-2.953.079-1.752.515-1.978,2.061-1.044a16.267,16.267,0,0,1,1.688,1.337c2.3,1.818,4.63,3.606,6.9,5.468,1.09.9,1.848.732,2.612-.389,2.065-3.029,4.169-6.03,6.258-9.043.652-.934,1.3-2.017,2.008-.038" transform="translate(-16.773 -79.922)" fill="#d91c1c"/>
    <path id="Path_380" data-name="Path 380" d="M8.751,134.521a15.005,15.005,0,0,1-4.609-.636c-.856-.262-1.69-.922-1.6-1.861.078-.812,1.107-.9,1.79-1.046,3.48-.729,6.649.593,9.858,1.6a.686.686,0,0,1,.529.762c-.088.48-.547.578-.939.626-1.674.2-3.352.374-5.029.556m32.5-39.929c-.148-.578-.223-1.278-1.028-1.287-.708-.008-.814.655-.952,1.138-.965,3.372.223,6.462,1.346,9.548a.833.833,0,0,0,.636.4c.313.011.382-.333.406-.6.112-1.2.208-2.41.262-3.038a19.725,19.725,0,0,0-.669-6.16m-33.881,62c-.58.521-1.229,1.233-.625,2.089a1.6,1.6,0,0,0,2.039.309,18.914,18.914,0,0,0,7.49-5.941c-3.455.967-6.521,1.4-8.9,3.543m.478-37.185c.27-.435-.083-.742-.365-1.034-1.547-1.6-3.11-3.187-5.338-3.841-.68-.2-1.5-.693-1.977.205a1.762,1.762,0,0,0,.453,2.032c1.613,1.874,3.889,2.284,5.9,2.8.607.04,1.063.266,1.33-.163m40.7,58.442c.407.317.837.787,1.437.523.58-.256.58-.846.631-1.385.234-2.471-1.028-4.543-1.821-6.737a.851.851,0,0,0-.615-.409c-.3-.034-.434.259-.473.537-.157,1.129-.306,2.26-.457,3.389.083,1.491-.064,3.022,1.3,4.082M53.669,88.77c-.062-.463-.028-.989-.593-1.172-.724-.234-.927.359-1.179.82-1.412,2.582-1.348,5.221-.24,8.4,1.054-2.968,2.378-5.3,2.012-8.053m12.551,16.337c-1.915.955-2.515,2.832-3.148,4.65-.16.46.007.924.716.858,1.435-.135,4.263-3.035,4.241-4.382-.042-1.27-.623-1.717-1.809-1.126M80.6,114.546c-1.553.619-2.328,1.966-3.141,3.262a.782.782,0,0,0,.257,1.213c1.269.64,4.783-1.7,4.766-3.3-.232-.877-.541-1.714-1.882-1.179M19.41,111.975c-.662-.606-1.611-.863-2.22.215-.6,1.059.1,1.679.931,2.063,1.25.58,2.563,1.027,4.072,1.617-.116-2.126-1.675-2.883-2.782-3.895M29.669,173.8c-1.225.026-1.452,2.04-1.57,3.326a1.486,1.486,0,0,0,1.57,1.693c1.139-.032,1.378-.867,1.322-2.105-.4-.864-.084-2.94-1.322-2.913" transform="translate(0 -52.146)" fill="#141414"/>
    <path id="Path_381" data-name="Path 381" d="M376.078,118.284c-4.375,4.078-8.335,7.789-12.317,11.478q-6.514,6.036-13.069,12.028c-.579.528-1.227,1.5-2.046.966-.351-.229.6-1.059.939-1.627,2.651-4.424,5.309-8.844,7.928-13.287,1.356-2.3,1.194-2.507-1.435-2.527-10.667-.083-21.333-.255-32-.237-2.219,0-2.068-1.017-1.677-2.438,2.631-9.578,5.291-19.147,7.917-28.725q3.32-12.111,6.591-24.234c.444-1.632-.2-1.815-1.662-1.449q-16.835,4.228-33.7,8.352c-.972.24-1.965.394-2.949.588q-.063-.255-.126-.509L360.187,47.4l.319.3q-2.619,5.487-5.238,10.973-7.911,16.608-15.819,33.218Q332.961,105.5,326.456,119.1c-.9,1.89-.613,2.311,1.612,2.167q22.924-1.487,45.847-2.98c.531-.034,1.066,0,2.163,0M351.1,220.662c2.6,4.831,5.22,9.654,7.8,14.5.985,1.845.783,2.136-1.308,2.21q-12.042.425-24.082.868c-2.691.1-5.385.207-8.069.413-.723.055-1.967-.089-1.358,1.452q5.212,13.188,10.373,26.4,4.3,10.949,8.6,21.893c.525,1.331.325,1.9-1.279,1.622q-10.748-1.855-21.512-3.61c-4.519-.734-9.052-1.383-13.58-2.052-.408-.061-1-.3-1.066.439-.046.5.359.58.77.727,2.085.746,4.167,1.505,6.217,2.342,13.427,5.479,26.834,11.007,40.277,16.448,2.429.984,4.782,2.258,7.708,2.8-3.417-7.189-6.7-14.081-9.969-20.975q-10.016-21.091-20.025-42.186c-.956-2.016-.783-2.308,1.357-2.269,14.378.265,28.737,1.032,43.1,1.6a3.269,3.269,0,0,0,2.322-.466l-25.845-22.611-.441.468M64.783,243.7q18.927-.578,37.855-1.137c1.555-.047,1.907.48,1.228,1.917q-7.509,15.894-14.95,31.82-3.332,7.112-6.6,14.252c-.226.5-.864,1.119-.324,1.619.268.248,1.03.064,1.536-.06q3.917-.959,7.815-1.992,12.58-3.312,25.154-6.648c3.237-.861,6.459-1.778,9.689-2.669q-.036-.257-.073-.513-3.968.254-7.937.509-11.1.724-22.2,1.45c-1.182.076-1.645-.314-1.113-1.551,1.714-3.993,3.353-8.019,5.064-12.014q5.861-13.686,11.773-27.35c.5-1.158.36-1.753-1.039-1.818-2.966-.137-5.927-.442-8.893-.49-7.361-.119-14.679-.934-22.027-1.247-.64-.027-1.459.131-1.8-.617-.364-.788.433-1.2.795-1.714,3.133-4.447,6.336-8.845,9.419-13.325.824-1.2,2.1-2.249,2-4.565L60.4,243.34a10.307,10.307,0,0,0,4.379.36m20.95-97.173c-1.585-1.718-1.441-2.232.758-2.8,5.057-1.3,10.08-2.725,15.081-4.356-.122-.074-.211-.174-.3-.176-9.724-.167-19.431.375-29.145.674-.328.01-.761-.032-.852.349-.131.547.343.8.711,1.1,3.811,3.194,7.564,6.46,11.423,9.6,5.8,4.712,11.359,9.694,16.97,14.62,1.586,1.393,1.528,1.744-.4,2.566-2.089.888-4.158,1.8-6.212,2.774-8.315,3.942-16.733,7.669-25.1,11.506-5.893,2.7-11.762,5.457-18.2,8.45l38.3,11.987a2.461,2.461,0,0,0-1.036-1.367q-7.983-4.875-15.988-9.715c-2.305-1.4-2.336-1.864-.08-3.2,6.283-3.732,12.315-7.861,18.678-11.478,5.054-2.873,9.805-6.276,14.806-9.518q-9.756-10.563-19.4-21.012m166.236-94.6c-1.692-5.846-3.371-11.7-5.08-17.536q-2.6-8.876-5.241-17.738-2.269-7.627-4.578-15.241C236.9.856,236.8.082,236.122,0c-.589-.068-.778.657-1.046,1.1Q228.628,11.774,222.2,22.453q-8.987,14.908-17.968,29.82c-1.365,2.272-2.654,4.59-3.978,6.887a1.039,1.039,0,0,0,.826-.346Q208.4,50.1,215.715,41.368c5.511-6.6,10.989-13.229,16.509-19.822,1.375-1.642,1.634-1.572,2.652.264,1.951,3.519,3.931,7.023,5.877,10.545q5.441,9.849,10.857,19.712l.358-.137m105,105.665q14.873,9.208,29.748,18.413c1.89,1.168,1.958,1.764.226,3q-9.99,7.152-19.992,14.288c-.3.211-.855.3-.636.783.334.736.828.063,1.161-.049,3.058-1.025,6.1-2.106,9.138-3.183q17.554-6.219,35.1-12.45A4.14,4.14,0,0,0,414,176.979l-56.841-20.133-.192.75M298.914,329.573l.395-.316-6.483-41.491c-1.68,7.731-2.988,15.427-4.214,23.136-.26,1.633-.761,2.066-2.37,1.3-6.116-2.906-12.249-5.783-18.45-8.5-1.469-.644-2.85-1.828-4.816-1.535l35.937,27.406M194.946,315.791a10.022,10.022,0,0,0-1.8.152c-6.353,1.692-12.694,3.425-19.045,5.127-4.28,1.147-8.576,2.238-12.85,3.408a1.41,1.41,0,0,1-2.01-1.007q-3.184-8.577-6.443-17.128c-1.315-3.438-2.711-6.845-4.07-10.266a1.21,1.21,0,0,0-.354,1.053q1.03,6.866,2.082,13.729,1.629,10.55,3.279,21.1c.178,1.145.378,2.211,2.012,1.487,3.559-1.577,7.137-3.114,10.715-4.65,6.716-2.884,13.448-5.733,20.153-8.642,2.856-1.239,5.662-2.592,8.49-3.893l-.163-.467m22.4,4.251c6.624,4.449,13.283,8.85,19.847,13.387,1.413.977,1.9.664,2.681-.66,5.885-9.918,11.847-19.789,17.787-29.674.388-.646.957-1.251.351-2.172-1.936,2.2-3.866,4.334-5.726,6.524q-7.307,8.6-14.563,17.243a2.15,2.15,0,0,1-2.775.8c-4.073-1.565-8.2-3-12.331-4.407-1.694-.577-3.455-.958-5.186-1.429q-.043.191-.085.382M287.2,30.548,265.592,51.627c.971.5,1.518-.093,2.123-.455,3.749-2.244,7.518-4.457,11.234-6.755,1.3-.807,1.965-.58,2.239.91.291,1.584.689,3.154.9,4.748.892,6.768,2.415,13.422,3.927,20.155l1.708-39.492-.517-.19M160.054,50.195c2.015-1.3,4.128-2.483,6.017-3.949a3.454,3.454,0,0,1,4.822-.073c3.742,2.721,7.633,5.241,11.5,7.789.53.35,1.011,1.174,1.917.66a5.666,5.666,0,0,0-1.907-2.334q-7.536-7.316-15.126-14.577c-2.333-2.245-2.345-2.249-3.449.787-1.385,3.811-2.749,7.629-4.122,11.444l.35.254" transform="translate(-29.999)" fill="#d91c1c"/>
  </g>
</svg>
