<svg id="image_strike" xmlns="http://www.w3.org/2000/svg" width="481.074" height="681" viewBox="0 0 481.074 681">
  <path id="Path_382" data-name="Path 382" d="M370.729,203.278c-2.547-3.682-5.253-7.286-5.752-11.954,1.135-.505,1.538-1.621,2.126-2.574,11.466-18.586,23.005-37.126,34.355-55.782,6.847-11.254,14.3-22.14,20.464-33.811l.054.049c-1.966-.292-3.556.822-5.22,1.507q-32.368,13.336-64.7,26.766a153.21,153.21,0,0,1-8.323-28.247Q365.5,66.865,387.271,34.5c5.392-8.022,10.737-16.077,16.172-24.071.8-1.173,1.177-2.962,3.2-3,.634,1.706-.65,2.722-1.3,3.871-12.424,21.878-24.783,43.794-37.381,65.572-5.975,10.328-12.036,20.6-17.22,31.352-.252.711-.021.886.644.581,15.165-6.4,30.347-12.752,45.49-19.2q30.168-12.842,60.291-25.788c.636-.272,1.3-.473,2.308-.833.1,2.139-1.231,3.313-2.08,4.638q-42.593,66.54-85.213,133.064c-.533.833-.969,1.728-1.451,2.6M141.674,173.787c-2.206-1.144-3.634-3.143-5.271-4.888q-23.3-24.826-46.536-49.713-14.656-15.709-29.21-31.511l-.346-.917,1.009.254,64.04,18.8C96.6,69.794,69.413,34.372,40.932,0l-1.44,1.105L97.784,80.359l-.77,1.077L23.891,58.249c.8,2.772,2.249,3.986,3.384,5.39Q70.017,116.517,112.8,169.366c8.041,9.925,16.207,19.747,24.317,29.617,2.664-8.193,3.4-16.734,4.56-25.2M412.189,343.381l.5.868L387.23,381.507l.786.887,85.731-22.739q-.131-.593-.262-1.185l-58.737,8.911,30.185-42.466c-2.346-.78-3.666-.035-4.995.328-22.749,6.208-45.584,12.13-68.194,18.809-14.873,4.394-30.776,5.827-44.2,14.625q-1.3,8.822-2.589,17.644l87.237-32.939m-57.3-46.949q35.25-32.844,70.446-65.748c1.711-1.6,3.2-3.521,6.272-4.863L424.586,272.3l1,.346,52.326-48.636c-3.021.134-4.047,1.221-5.259,1.914-9.73,5.562-18.843,12.185-29.046,16.939-.635.219-.856.032-.61-.62q5.159-25.07,10.32-50.139a10.1,10.1,0,0,0-4.8,2.435c-22.435,19.388-43.812,39.943-65.869,59.747-8.536,7.664-16.579,15.877-25.586,23.017q-2.992,10.735-5.983,21.469c1.9.263,2.735-1.335,3.812-2.339M127.183,246.639q-53.61-38.982-107.2-77.982c-.667-.486-1.214-1.551-2.622-.829,1.92,2.849,3.734,5.548,5.557,8.241q19.231,28.411,38.466,56.82c.369.7.225.974-.58.713-1.886-.97-3.849-1.819-5.644-2.938-13.381-8.342-26.719-16.754-40.1-25.091-1.346-.838-2.509-2.372-4.512-1.839-.223,1.96,1.427,2.36,2.484,3.085,21.671,14.874,42.785,30.526,64.173,45.794,6.209,4.432,11.939,9.594,18.881,12.965l.062-.065c-6.686-11.377-14.571-21.97-21.678-33.069-4.888-7.634-10.506-14.793-14.822-22.8l-.695-.879-.7-.934c-.038-.216-.078-.431-.116-.647l.584.184.905.806.951.758c15.549,12.586,31.059,25.22,46.661,37.74,7.613,6.109,14.782,12.785,23.009,18.114,1.325-4.224.481-8.7,1.53-12.961l-.637-2.708c-1.319-.823-2.7-1.567-3.95-2.479m-3.43,126.526Q91.229,355.916,58.63,338.812c-.056,16.215.141,32.426,1,48.622,7.754,3.021,14.458,8.141,22.165,11.429.8-1.655-.172-2.7-.637-3.795-5.113-11.975-10.273-23.93-15.384-35.906-.547-1.283-.857-2.667-1.277-4l-.108-.189.2.1c8.892,3.793,17.131,8.843,25.615,13.411,22.509,12.121,44.929,24.409,67.4,36.6a22.864,22.864,0,0,0,3.159,1.163c.727-4.21-.491-8.55.847-12.72-12.614-6.793-25.193-13.652-37.849-20.364M4.005,356.727l29.055,15.6c1-2.728.666-5.526.427-8.318-9.918-1.918-19.193-6.275-29.482-7.284" transform="translate(-0.588)" fill="#f7cc3f"/>
  <path id="Path_383" data-name="Path 383" d="M124.377,427.6q.02,2.081.039,4.163c-.1,2.123-.294,4.246-.294,6.371q-.019,127.805-.005,255.612H3q.3-105.567.6-211.132c0-1.563.1-3.129.045-4.691a4.947,4.947,0,0,1,3.529-5.208c4.761-1.869,9.332-4.644,14.259-5.579,10.915-2.073,12.954-8.779,13.058-18.759.386-36.955,1.539-73.9,2.422-110.852q.836-34.96,1.731-69.919c.117-4.543,3.289-7.907,7.207-7.833,4.119.078,4.974,1.388,5.043,7.453q.5,43.923,1.033,87.847a11.417,11.417,0,0,0,.685,5.026l.046,6.023a5.5,5.5,0,0,0-.136.839c-.212,27.8.144,55.591.813,83.38.113,4.665,2.6,3.309,5.035,1.784l3.543-1.381a5.186,5.186,0,0,0,1.259-.149c18.348-6.981,36.94-13.343,54.853-21.44,2.005-.906,3.881-2.506,6.356-1.551M453.839,512.45q-.539-30.479-1.055-60.957c-.112-6.726-.329-6.98-6.911-7.135L440.3,447.95c-.2,1.543-.532,3.081-.583,4.627-.561,17.186-1.23,34.371-1.556,51.562-.223,11.784-2.272,9.459,9.554,12.95,6,1.773,6.234,1.547,6.125-4.64M137.157,212.289a2.839,2.839,0,0,0-.248-.62c0,.311,0,.623,0,.934.087-.106.26-.226.245-.314m170.426-8.126c.011,0,.019-.009.03-.014l0-.009Zm58.577,17.9q.2.744.393,1.488a4.588,4.588,0,0,1-3.617,1.883c-3.134-1.555-3.288-.009-2.557,2.458a1.173,1.173,0,0,0,.2,1.639q.059.868.117,1.735a4.083,4.083,0,0,0,.687,3.394c.909,2.223.627,4.548.586,6.852q-1.712,1.075-3.426,2.147c-4.653-4.6-9.189-9.377-16.065-10.608-.8-1.424-2.077-1.619-3.525-1.386l-5.823-2.043a2.079,2.079,0,0,0-2.012-1.231c-6.713-3.016-14.75-1.9-20.894-6.689.113-4.206,3.367-1.248,4.923-2.16a2.847,2.847,0,0,0,.683.5c10.98,3.709,22.586,4.08,33.838,6.344a1.587,1.587,0,0,0,2.038-1.6c.168-1.586-.325-3.016-2.018-3.232-2.383-.3-4.83-.09-7.22-.364-9.75-1.119-19.823-1.166-27.964-7.96l.006.028a3.186,3.186,0,0,0-2.784-2.171,2.229,2.229,0,0,0-.633-.306,4.737,4.737,0,0,0-3.611-2.353l-1.092-.931,1.226-3.348a2.223,2.223,0,0,0,1.588-1.8l.766-1.7a15.754,15.754,0,0,0,4.352-7.774c-3.123,2.309-6.3,4.478-8.393,7.834l-4.825,1.383.5-3.135.809-.762c4.93-2.261,6.576-7.013,4.638-13.914-1.733,2.008-2.213,5.218-5.5,5.286-.277-2.088-1.5-2.382-3.353-1.98-4.421.958-8.862,1.826-13.309,2.655-2.366.441-5.61,1.387-6.939-.283-2.756-3.465-6.242-4.758-10.74-5.106,1.994-2.444,4.038-1.891,5.939-2.042,1.616-.128,3.893.117,3.968-2.181.076-2.334-2.092-2.705-3.96-2.954-.836-.112-1.714.041-2.538-.113-8.172-1.516-14.566-6.138-20.38-11.755.244-.012.493-.041.743-.073-.25.032-.5.061-.743.073l-1.8-.493c-2.883-1.964-5.757-3.943-8.65-5.891-8.184-5.509-10.256-13.408-8.969-22.676.236-1.7,1.329-2.369,2.688-2.944a14.011,14.011,0,0,1,8.4-.452c10.788,2.209,21.749,1.9,32.645,2.517a39.482,39.482,0,0,0,13.9-1.513c3.89-1.192,7.592.572,11.315,1.145,8.658,1.333,17.559,1.8,25.707,5.429,5.57,2.478,9.481,6.074,9.479,13.1,0,5.9,3.235,11.114,5.65,16.393,4.715,10.3,8.224,21.142,13.747,31.087a1.737,1.737,0,0,0,.83,1.736c1.021,4.416,3.535,8.058,6.061,11.7-.071.357-.143.711-.216,1.066h0l1.334.281a1.971,1.971,0,0,1,.391.562c-.114.278-.243.572.232.216l.884.613a7.634,7.634,0,0,0,2.3,4.387m-113.7-56.456a5.616,5.616,0,0,0-.732.035,5.616,5.616,0,0,1,.732-.035m76.388-2.511c-.005-.848.032-1.7-.031-2.542-.047-.637.3-1.6-.553-1.766a2.237,2.237,0,0,0-1.827.719c-4.09,5.4-10.725,8.351-13.968,14.55.173,1.961-2.419,3.257-1.39,5.41a1.685,1.685,0,0,0,1.98-.525c4.15-4.357,8.317-8.7,12.354-13.163,1.021-1.129,1.52-2.754,3.433-2.682m6.38,97.1-1.3-.683-.945-.735-.038-.032c0-.333,0-.666,0-1-.3.088-.6.174-.9.261-4.076-1.661-4.979-6.322-8.258-8.735a38.273,38.273,0,0,1-8.681-9.322l-.675-.927-1.851-2.574-.623-.8-1.15-1.656-.621-.93a.861.861,0,0,1-.347-.56,2.225,2.225,0,0,1-1.4-2l-.084-.123a4.752,4.752,0,0,1-2.484-3.337.957.957,0,0,1-.378-.5,13.017,13.017,0,0,1-4.723-8.081.6.6,0,0,1-.225-.435l-.961-1.01.119.13c-2.794,1.027-4.96,3.946-8.772,1.3-1.889-1.313-3.093,1.8-3.688,3.617-.818,2.5-1.038,5.562-4.691,2.35-.958-.842-1.864-.01-2.58.706a16.813,16.813,0,0,0-4.081,5.419c-1.747,4.386-4.387,8.256-6.712,12.313-1.635,2.853-4.246,3.65-7.026,5.073-3.991,2.043-9.073.168-12.265,4.362a26.948,26.948,0,0,0-5.088,12.861c-1.315,8.673-3.074,17.278-4.649,25.911q-.093.836-.186,1.672-.014,3.9-.027,7.8a1.693,1.693,0,0,1,.108.815l.6.766a8.192,8.192,0,0,0,8.158-.526,8.192,8.192,0,0,1-8.158.527l-.808-.286.816,2.856a2.367,2.367,0,0,1,.852,2.041q.119,1.146.24,2.291c1.265,8.249,6.244,14.886,9.578,22.242a116,116,0,0,1,6.021,16.612c-2.251-1.387-2.565-3.906-3.5-6.009-1.578-3.545-3.445-6.272-8.087-5.7-3.08.381-2.445-2.856-3.445-4.495a12.9,12.9,0,0,0-1.81,1.067,13.032,13.032,0,0,1,1.809-1.068,69.05,69.05,0,0,0-4.682-17.957c-2.9-6.91-3.311-13.92-3.608-21.1-.221-5.352-.409-10.7-.612-16.058q-.055-.906-.111-1.812c-1.261-2.618-.294-6.7-4.331-7.487-3.863-.749-5.142,2.64-7,5.043-2.024,2.616-5.022,2.8-8.007,2.9a16.189,16.189,0,0,0-.748,2.969,16.189,16.189,0,0,1,.748-2.969q-.616-.324-1.23-.65l-5.009.207c-8.852,1.677-16.858.12-23.8-5.974-3.509-3.082-6.215-6.5-7.119-11.271a85.158,85.158,0,0,0-2.679-8.952q-.427-1.119-.852-2.237a3.842,3.842,0,0,1-1.507-2.954l.02.016-6.782-6.894-.812-.807a6.137,6.137,0,0,1-3.462-.743l-2.47-.379c-5.669-.005-11.2-1.206-16.77-2.018-4.269-.623-5.093-.091-4.64,4.141a27.131,27.131,0,0,0,.748,3.275q.15,1.2.3,2.41c-1.085,1.66-.727,3.56-.913,5.375-.578,5.63-.5,11.33-1.788,16.883q.015,1.274.032,2.547a6.791,6.791,0,0,1,.036,6.006q-.029,7.239-.059,14.477,2.141,5.111,4.283,10.222h0A23.869,23.869,0,0,1,145.6,307.2l3.322,3.341a2.477,2.477,0,0,1,1.905,1.435s.211.1.211.1a34.634,34.634,0,0,0,12.424,8.414c.853.317,2.022.874,1.574,2.137-.416,1.171-1.629.955-2.59.923-2.27-.075-4.537-.229-6.8-.352l-2.336,2.081q-.177,1.247-.353,2.493l4.421,1.712a3.451,3.451,0,0,1,2.974,1.427c3.6,1.191,7.183,2.466,10.822,3.536,1.558.458,3.938-.177,4.209,1.958.274,2.151-2.16,2.211-3.619,2.908-.383.183-.8.284-1.2.441-8.088,3.223-8.56,3.51-4.232,10.683,4.932,8.172,7.2,10.415,15.457,5.657a29.085,29.085,0,0,1,6-2.09c2.016-.623,3.928-.075,4.742,1.8,2.041,4.7,5.159,4.362,8.9,2.4a14.425,14.425,0,0,1,3.2-1.143c3.791-.946,5.35.417,4.919,4.392a50.553,50.553,0,0,1-1.032,4.96c2.234.457,3.806-.6,5.381-1.427,1.88-.988,3.638-2.205,5.488-3.254,1.45-.822,3.083-2.172,4.625-.673,1.383,1.344.1,2.885-.517,4.286-.37.835-1.385,1.549-.462,2.913,3.886-.974,7.864-1.918,11.81-2.984,1.7-.46,3.323-.836,4.869.333,3.1,2.345,6.7,2.83,10.449,3.03,3.8.2,7.292,1.265,9.345,4.917,2.717,2.2,1.516,3.387-1.166,3.55-2.94.178-5.912-.155-8.87-.266q-2.965.63-5.932,1.263l-1.761.555-2.484.082a127.869,127.869,0,0,1-20.525-.014l-4.218.259c-3.032,1.418-5.8.317-8.545-.911l-9.329-.391-1.8-.349-5.945-.134c-3.719.873-4.765-.665-3.476-5.111.786-1.925,2.186-3.663,1.814-5.941-5.281,5.737-11.707,3.5-17.945,2.582l-1.617.093-.9,7.534c3.806,1.883,7.545,3.943,11.858,4.481a3.2,3.2,0,0,1,2.59.675l2.509.379a6.818,6.818,0,0,1,4.358,1.195l2.485.3c5.619,1.492,11.575,1.2,17.089,3.239l2.575-.049a3.351,3.351,0,0,1,3.2,3.718c-.021,2.078-1.218,3.015-3.258,2.934l-5.031-.162-6.884.248-2.545.108c-2.78.916-5.521,2.2-8.535.908l-1.741-.161c-1.352,1.228-2.788,1.088-4.267.265l-2.475-.055a7.154,7.154,0,0,1-4.317.679l-1.389.238c-.678,2.151-.572,4.627-2.583,6.225l2.265,1.379c10.391.7,20.858.842,31.435,3.484-1.306,1.982-2.558,1.5-3.579,1.5-10.726-.013-21.468.687-32.169-.617l-.934,1.5q-.01,3.009-.022,6.019l.182,5.942a34.065,34.065,0,0,1,1.678,14.513q.425,1.315.848,2.631c11.433,3.213,22.99,6,34.184,10.03l1.615.329c10.019,2.026,19.661,5.416,29.477,8.173,17.874,5.019,35.7,10.221,53.534,15.364a23,23,0,0,1,2.346.956l1.641.369a135.3,135.3,0,0,1,19.7,5.558c1.591.074,3.287.423,4.1-1.556a8.271,8.271,0,0,1-.674-4.141c.274-10.318-1.3-20.591-.746-30.916l-.315-1.626c-2.212.439-2.317,2.144-2.4,3.912-.093,2.1.3,4.275-.884,6.222l-.054,1.761c-.833,3.889-1.634,7.785-2.52,11.661-.236,1.031-.183,2.623-1.7,2.528-1.216-.077-1.73-1.48-1.961-2.535a14.917,14.917,0,0,1-.254-4.208c.817-11.5-.554-22.925-1.015-34.381-.043-1.062.164-2.663-1.234-2.858-1.677-.233-1.468,1.446-1.514,2.459-.114,2.508-1.514,3.575-3.811,3.653-2.467.084-2.981-1.831-3.38-3.669a97.74,97.74,0,0,0-3.9-14.378l-.049-.035c-3.579-1.424-5.249-4.218-5.677-7.9a4.619,4.619,0,0,0-.443-.645c-3.492-2.045-3.587-6.479-6.416-9.13-1.076-1.01.843-1.738,1.952-1.547a11.369,11.369,0,0,1,6.344,3.053l2.586,1.73,5.184-1.741,2.456-1.4a4.719,4.719,0,0,1,4.406-2.016l3.271-1.5c1.706-2.418,6.5-1.9,6.055-6.366l-1.818.2c-2.05.987-4.045,1.149-5.926-.393q-1.632-.332-3.265-.668c-5.166.224-9.821-2.755-15.009-2.4a4.429,4.429,0,0,1-4.657,1.772l-.853-.211c-15.44-5.1-23.327-16.519-26.273-32.17,5.264,11.391,14.558,18.421,25.179,24.017a3.06,3.06,0,0,0,2.712-2.688l-2.88-3.454c-1.689-.59-2.933-1.557-3-3.525q-.547-.824-1.1-1.65a2.561,2.561,0,0,1-1.494-1.771c-4.736-10.13-9.594-20.211-12.594-31.864,2.434,1.156,2.938,2.982,3.863,4.377a16.408,16.408,0,0,1,1.983,3.762c4.578,13.721,16.371,18.2,28.687,22.156-10.4-10.4-22.285-19.543-28.33-33.55-4.49-4.642-6.828-10.522-9.252-16.389,4.814,4.8,6.993,11.411,11.288,16.551,4.567,6.445,8.929,12.984,14.638,18.61,3.563,3.511,8.781,3.972,11.979,7.734v0a55.283,55.283,0,0,1,12.671,8.638l.018.018a5.272,5.272,0,0,1,3.467,2.408l1.69.911,2.709,1.656a2.2,2.2,0,0,1,.5-.193,5.488,5.488,0,0,1,2.671-3.192,2.81,2.81,0,0,1,.335-.709q.347-2.6.695-5.195l-1-.754a11.655,11.655,0,0,1-5.983-2.553l-1.641-.037c-1.2,2.231-3,1.784-4.742.931-3.431-1.683-6.745-3.563-9.146-6.674l-.107-.048c-11.146-5.81-15.707-16.843-21.33-27.115,7.391,8.538,11.16,20.817,24.267,23.279l2.48.276a27.31,27.31,0,0,1,11.962,3.332l1.658.281a18.477,18.477,0,0,1,6.891,2.068l1.512-.44c-4.743-5.263-9.9-10.189-13.481-16.573,2.409,3.909,7.51,3.2,10.236,6.356l2.637,1.34a5.672,5.672,0,0,1,3.855,2.285q2.146.129,4.291.262c.652-1.642,1.154-3.37,2.61-4.552q.217-1.044.437-2.085c.4-2.663,1.03-5.233,2.871-7.33q.248-1.458.5-2.911.329-.878.657-1.757.156-.823.313-1.645c3.45-9.993,6.739-20.046,10.428-29.95,1.532-4.112.769-6.948-2.57-9.632-3.955-3.18-7.664-6.667-11.479-10.02a4.415,4.415,0,0,1-2.538-3.332l-.666-1.054.666,1.051v0l0,0v0h0s-.024-.108-.031-.14l0-.012v0c1.654.019,3.221.247,4.226,1.8l1.717.888c3.413,1.566,6.819,3.146,10.242,4.689.755.34,1.681.728,2.3-.089.645-.849-.106-1.534-.618-2.182l-.653-.8a.721.721,0,0,1-.2-.708l-1.618-.973c0-.363,0-.726,0-1.088l-.958.392a.288.288,0,0,1,0-.438q-.491.031-.478-.463a7.9,7.9,0,0,1-3.3-2.4c2.308-2.9,5.2-2.015,8.081-1.255,2.136-.466,4.508,2.129,6.477-.5a26.094,26.094,0,0,0-3.5-1.48c-6.178-1.648-11.975-5.157-18.755-3.932M148.8,205.887l-3.035-.732.054-.079c-1.159-7.028.147-13.937,1.789-20.641,1.119-4.566,5.819-6.774,9.28-9.624a47.92,47.92,0,0,1,14.168-7.664,10.254,10.254,0,0,0,5.58-4.866c2.711-4.659,5.713-9.151,8.317-13.865,4.108-7.438,10.158-12.089,18.529-13.585,5.021-.9,10.047-1.906,15.115-2.374,7.074-.653,9.5,2.689,6.724,9.044-.733,1.678.04,3.812-1.708,5.095l1.28,5.346q.042.87.086,1.741a8.558,8.558,0,0,0,3.116,7,2.173,2.173,0,0,0,.4.626,17.353,17.353,0,0,0,4.819,6.888l.683.963c2.018,3.83,4.049,7.65,7.886,10.051l.875.917c5.883,6.113,12.943,10.54,20.466,14.3q.868,1.388,1.735,2.774,4.218,10.677,8.435,21.353.061,2.157.122,4.314c-2.16,6.309-5.665,11.238-12.438,13.407-3.056.978-6.294,1.749-8.958,3.755l-1.741.765a4.4,4.4,0,0,0-3.492,1.517l-3.315,1.417-1.787-.056-1.353-.563c-1.323-1.992-3.192-3.5-4.289-5.754-9.97-20.493-19.251-41.387-33.6-59.406l-1.737-.271q-.093.931-.188,1.861a16.5,16.5,0,0,1-4.811-2.686,16.5,16.5,0,0,0,4.811,2.686,15.384,15.384,0,0,1,4.394,5.865q11.6,25.549,23.218,51.088c2.15,4.7-.729,8.5-1.916,12.617-7.129,2.762-13.546,7.1-20.927,9.341-2.7.82-5.079,1.124-7.763-.167-3.023-1.455-6.1-2.6-9.787-1.947A4.76,4.76,0,0,1,182.3,252.1c-.34-8.818-6.79-14.775-9.66-22.329-2.171-5.713-7.369-10.037-7.447-16.663.361-1.2.75-2.046,2.215-.991-1.465-1.056-1.854-.207-2.223.967-.238-1.335-.413-2.854-1.923-3.259-1.1-.294-1.649.693-1.878,1.713-.195.612-.388,1.225-.587,1.852l.587-1.852c-.146,3.868,1.686,7.4,1.919,11.2-3.262.232-5.033-1.906-6.7-4.214-1.032-3.577-4.65-6.053-4.346-10.2a9.852,9.852,0,0,1,2.378,1.2,9.852,9.852,0,0,0-2.378-1.2c-.549-.969-1.073-1.965-2.288-2.262l-1.174-.175M202.89,172.5a7.5,7.5,0,0,1,.93-1.669,8.831,8.831,0,0,0,1.262-2.195c1.887-8.019,6.616-13.922,13.439-18.3a5.106,5.106,0,0,0,2.087-3.545,5.847,5.847,0,0,0-4.463.615c-5.517,3.891-10.269,8.351-11.281,15.523a1.691,1.691,0,0,1-.221,1.964q-.411,2.967-.823,5.935a7.5,7.5,0,0,0-.93,1.669m-33.734,40.855c.509.349.948.633,1.329.847,2.289,1.285,2.49.052,3.066-4.741a20.842,20.842,0,0,1,1.971-7.3,17.471,17.471,0,0,1,9.214-9.841c5.783-2.763,11.947-3.414,17.834-5.34-2.276-1.64-3.773-4.579-7.545-3.41a93.673,93.673,0,0,0-17.044,7.528,8.515,8.515,0,0,0-4.307,5.51c-.88,3.4-1.586,6.842-2.352,10.27-.411,1.84.369,2.688,2.228,2.588-.575,4.793-.776,6.027-3.065,4.741-.381-.214-.821-.5-1.329-.847M289.7,112.092c2.112,2.168,3.415,4.872,4.958,7.407,4.491,7.383,9.852,13.415,19.4,13.676a23.561,23.561,0,0,1,5.4,1.123c3.407.93,7.066,1.518,9.641,4.154,3.264,3.34,6.27,6.545,11.5,3.437,1.936-1.15,5.134,1.883,6.5-1.146,1.031-2.279-1.187-4.539-1.435-6.924a5.372,5.372,0,0,0-.184-.83c-3.616-13.423-7.238-26.842-13.729-39.259l-29.405.321c-.486,3.352-1.39,6.4-5.149,7.537-1.324.4-2.782.327-1.872-1.3,1.66-2.957,2.284-6.879,6.27-8.067q.376.913.752,1.825l29.406-.322a6.989,6.989,0,0,0-6.322-4.095,18.363,18.363,0,0,0-8.756-1.143c-4.228-.357-8.48-.514-12.623-1.563l-1.652.061a2.427,2.427,0,0,1-.785.3c-5.805,2.181-14.234,17.643-12.68,23.307a3.526,3.526,0,0,0,.764,1.5m-68.634,3.152c8.313-12.455,19.242-21.253,34.219-24.294,4.526-.919,8.339.642,11.543,3.856h0A122.681,122.681,0,0,1,286.107,115.6c2.484,3.454,4.6,7.175,7.14,10.585,2.3,3.082,1.06,3.6-2.05,3.954-16.073,1.843-32.016-.068-47.983-1.409-1.405-.118-2.958-.57-4.2-.151-5.415,1.826-9.9,1.185-14.35-2.907-3.174-2.922-4.881-5.8-3.6-10.423m2.579,4.8c.466,1.364,1.124,2.884,2.758,2.708,1.5-.162,1.433-1.866,1.791-3.044.686-2.256-.223-4.477-.148-6.72a5.8,5.8,0,0,0-.714-.23l-1.4.224L223.139,118c.164.683.276,1.383.5,2.045m-79.422,96.94c3.671,1.958,4.1,6.549,7.261,8.926l3.361,1.028c.762-2.643-1.9-4.245-2.014-6.619-2.342-1.751-2.836-4.589-3.375-7.046-.617-2.811-2.36-3.96-4.5-5.058-.879-.451-1.86-.923-2.758-.158-1,.856-.881,1.976-.413,3.093q1.222,2.915,2.433,5.834m1.193-12c-.072-.007-.157.119-.235.186l.488-.078a.623.623,0,0,0-.253-.108m.406.084-.154.024c.033.02.067.042.1.059,0,0,.054-.079.053-.083m204.565,68.023-.9-.056.654.8q.134-.366.242-.742M302.557,414.064c-1.038.1-.995,1.185-1,1.98s-.061,1.871.974,2c1.359.166,1.334-1.047,1.505-1.971-.165-.926-.127-2.142-1.478-2.006m47.757-169.942q-17.588-8.707-35.175-17.416a2.4,2.4,0,0,0-2.788.143c-.738.708.148,1.611.457,2.277.807,1.74,1.3,3.788,3.393,4.607-.156,1.875,1.1,3.108,2.068,4.452,2.681,3.738,5.4,7.445,8.109,11.164,2.438,1.869,5.27,3.332,6.594,6.358,4.7.427,9.11,2.137,13.678,3.145.973.027,2.095-.253,2.893.134,3.642,1.768,6.629,1.084,9.146-2.009q.083-.833.166-1.668c-.555-.806-.315-1.374.523-1.766q.147-.842.292-1.685-1.366-2.888-2.73-5.776c-2.27-.45-4.223-1.971-6.628-1.959M141.447,224.714c1.824.94,3.792,1.6,5.7,2.383q.142.8.285,1.6l.308.061q-.291-.828-.584-1.655l.013,0c-1.341-3.722-2.913-7.278-6.7-9.223l-.814.847-.764.905c-.66,2.454.569,4.054,2.56,5.079" transform="translate(-0.44 -12.745)" fill="#d91c1c"/>
  <path id="Path_384" data-name="Path 384" d="M481.06,529.836c.152-2.37-.954-3.7-3.183-4.327-4.371-1.231-8.671-2.775-13.1-3.73-4.366-.942-5.892-3.124-5.908-7.67-.079-22-.513-44-.815-66-.034-2.448.158-5.416-2.948-5.787-3.246-.387-7.064-2.185-9.675,1.7,6.582.155,6.8.41,6.911,7.136q.507,30.479,1.055,60.957c.11,6.187-.121,6.411-6.125,4.639-11.826-3.491-9.777-1.165-9.553-12.949.325-17.191.994-34.376,1.555-51.563.05-1.546.38-3.083.584-4.627-2.3.707-2.268,2.615-2.326,4.493q-.859,27.89-1.715,55.78c-.159,5.4-.114,5.458-5.289,3.983-33.874-9.662-67.731-19.387-101.631-28.955-3.021-.853-4.156-2.508-4.457-5.332-1.7-15.97-1.555-32.034-2.14-48.049-.5-13.6.819-27.228,2.063-40.8l2.588-17.644c-.747-3.081.75-5.521,2.353-7.872,2.468-3.619,5.136-7.105,7.538-10.766,1.845-2.814,4.521-5.328,4.98-8.767,1.452-10.859,5.431-21.056,7.954-31.628l.782-.915-.071.043q2.992-10.735,5.983-21.469c-.2-2.487.638-4.757,1.462-7.028,2.029-5.589,4.206-11.129,6.065-16.774,3.369-10.223,6.086-20.677,10.791-30.418a11.29,11.29,0,0,0,.526-8.21c-1.072-4.217-4.293-7.368-5.177-11.6-2.547-3.681-5.253-7.285-5.752-11.953-3.979-3.813-5.383-9.138-7.918-13.779-2.352-4.308-3.963-9.021-5.9-13.555l.566-2.6q.514-5.928,1.028-11.855c-.383-.013-.765-.03-1.142-.064.377.034.759.051,1.142.064.478-2.8.788-5.639,1.47-8.386,1.219-4.91-1.012-9.189-2.166-13.675a153.378,153.378,0,0,1-8.322-28.246c-1.342-1-1.753-2.53-2.3-3.992C339.112,103,337.4,98.334,335.6,93.708c-2.3-5.889-4.666-7.669-10.83-7.628a169.709,169.709,0,0,1-20.791-1.3,13.277,13.277,0,0,0-12.514,4.857c-2.893,3.532-5.669,7.028-7.386,11.346-1.549,3.9-2.725,4.088-5.73.964A129.338,129.338,0,0,1,269.412,91.7a11.3,11.3,0,0,0-9.024-4.815c-9.526-.282-18.2,2.029-25.927,7.871-4.008,3.031-6.8,7.192-10.651,10.377-6.348,5.247-10.378,11.7-7.861,20.464.823,2.864-.586,3.836-3.1,4.258-3.5.587-7.1.926-10.421,2.07-6.466,2.231-13.027,3.909-17.854,9.865-4.487,5.538-7.738,11.768-11.872,17.459-1.844,2.537-3.44,5.522-6.537,6.48-5.29,1.635-9.334,5.3-14.058,7.81-5.389,2.861-9.606,6.469-11.023,12.657-1.161,8.462-1.9,17-4.56,25.2l-.057-.059a2.887,2.887,0,0,1,.247.62c.015.089-.158.209-.245.315a6.789,6.789,0,0,1-.823,2.363c-4.194,4.694-4,9.944-2.229,15.48a7.625,7.625,0,0,1,.315,2.919c-.84,9.524-.96,19.129-3.19,28.5q.317,1.354.637,2.707l3.567.054-3.567-.053c-1.049,4.257-.2,8.737-1.53,12.961-2.578,10.686.626,20.339,5.306,29.728a4.294,4.294,0,0,1,.28.8c4.879,18.256,15.827,33.494,24.729,49.749,1.014,1.851,2.4,3.159,4.648,3.208l.006.008.354,5.9,2.294,1.9,1.616-.092h0c6.237.918,12.664,3.155,17.945-2.582.372,2.279-1.028,4.016-1.814,5.94h0c-1.289,4.445-.243,5.984,3.476,5.111l5.945.134,1.8.349a1.56,1.56,0,0,0-.586-.579,1.56,1.56,0,0,1,.586.579l9.329.391c2.75,1.229,5.514,2.329,8.545.911l4.218-.259a3.282,3.282,0,0,1,2.028-1.319,3.282,3.282,0,0,0-2.028,1.319,127.679,127.679,0,0,0,20.526.014l2.483-.082c.3-.585.691-.881,1.206-.784-.514-.1-.905.2-1.206.785l1.762-.556,5.931-1.264c1.234-1.38,2.8-1.348,4.365-1.334-1.561-.014-3.132-.046-4.365,1.335,2.958.112,5.93.446,8.871.267,2.682-.163,3.882-1.347,1.166-3.55-2.054-3.653-5.542-4.715-9.345-4.918-3.751-.2-7.349-.684-10.45-3.03-1.545-1.169-3.166-.793-4.869-.333-3.946,1.065-7.925,2.011-11.81,2.984-.924-1.365.09-2.077.462-2.913.621-1.4,1.9-2.943.516-4.287-1.542-1.5-3.176-.148-4.625.674-1.85,1.049-3.608,2.266-5.488,3.253-1.575.828-3.148,1.885-5.381,1.428a50.52,50.52,0,0,0,1.032-4.961c.431-3.974-1.128-5.338-4.919-4.392a14.474,14.474,0,0,0-3.2,1.144c-3.737,1.958-6.855,2.3-8.9-2.4-.814-1.876-2.726-2.424-4.742-1.8a29.086,29.086,0,0,0-6,2.09c-8.252,4.757-10.526,2.514-15.457-5.658-4.328-7.172-3.856-7.459,4.233-10.682.4-.158.816-.259,1.2-.441,1.46-.7,3.894-.757,3.62-2.908-.272-2.135-2.652-1.5-4.21-1.958-3.638-1.07-7.217-2.346-10.82-3.538h0a3.452,3.452,0,0,0-2.974-1.425l-4.421-1.712q.178-1.247.354-2.493l2.335-2.083c.5-1,1.635-1.162,2.622-1.724-.987.562-2.12.72-2.622,1.726,2.268.123,4.534.276,6.8.352.962.032,2.175.248,2.59-.923.448-1.263-.721-1.819-1.574-2.137a34.632,34.632,0,0,1-12.424-8.414l-.209-.106h0a2.476,2.476,0,0,0-1.9-1.43l-3.321-3.342h0a23.886,23.886,0,0,0-6.109-9.323h0q-2.142-5.11-4.284-10.221.029-7.239.06-14.477h0a6.794,6.794,0,0,0-.035-6.006q-.017-1.274-.032-2.546c1.286-5.555,1.21-11.254,1.788-16.883.187-1.815-.172-3.716.913-5.376q-.151-1.2-.3-2.41a27.443,27.443,0,0,1-.748-3.274c-.453-4.232.371-4.764,4.64-4.141,5.568.812,11.1,2.013,16.769,2.018h0l2.47.38a3.292,3.292,0,0,1,1.561-.687,3.292,3.292,0,0,0-1.561.687,6.144,6.144,0,0,0,3.462.743l.812.807,6.773,6.883h0l-.009,0a3.83,3.83,0,0,0,1.509,2.951q.422,1.121.849,2.239h0a85.069,85.069,0,0,1,2.678,8.951c.9,4.772,3.61,8.188,7.119,11.271,6.936,6.093,14.943,7.651,23.794,5.974l5.011-.209c3-.754,5.332-2.527,7.581-4.419-2.25,1.892-4.581,3.664-7.583,4.421q.613.326,1.23.649c2.985-.1,5.983-.281,8.007-2.9,1.859-2.4,3.139-5.791,7-5.042,4.037.783,3.07,4.868,4.331,7.488q.055.9.112,1.811c.2,5.352.39,10.706.611,16.058.3,7.18.71,14.188,3.607,21.1a69.084,69.084,0,0,1,4.683,17.957c1,1.639.365,4.877,3.445,4.495,4.643-.575,6.509,2.152,8.088,5.7.936,2.1,1.25,4.621,3.5,6.008a116.029,116.029,0,0,0-6.021-16.611c-3.334-7.356-8.313-13.993-9.578-22.243.007.606.018,1.211.038,1.813-.02-.6-.031-1.208-.038-1.813q-.12-1.146-.24-2.29a2.76,2.76,0,0,1-.686-.914,2.76,2.76,0,0,0,.686.914,2.369,2.369,0,0,0-.854-2.043q-.4-1.426-.813-2.855l.808.285-.6-.765a1.693,1.693,0,0,0-.108-.815q.014-3.9.027-7.8.093-.836.186-1.672c1.574-8.634,3.334-17.239,4.648-25.911a26.95,26.95,0,0,1,5.088-12.861c3.194-4.194,8.275-2.319,12.265-4.362,2.78-1.423,5.391-2.22,7.026-5.073,2.325-4.057,4.965-7.926,6.712-12.313a16.827,16.827,0,0,1,4.081-5.42c.717-.715,1.623-1.547,2.58-.7,3.654,3.211,3.873.151,4.691-2.351.595-1.818,1.8-4.929,3.688-3.617,3.813,2.65,5.979-.27,8.771-1.3l-.118-.129.961,1.008a.6.6,0,0,0,.225.437,13.018,13.018,0,0,0,4.724,8.082.953.953,0,0,0,.377.5,4.759,4.759,0,0,0,2.484,3.338l.084.122a2.222,2.222,0,0,0,1.4,2,.854.854,0,0,0,.346.559l.622.931,1.149,1.656.624.8L314,238.692l.675.927a38.233,38.233,0,0,0,8.68,9.322c3.279,2.414,4.182,7.075,8.258,8.736.3-.087.6-.173.9-.261,0,.333,0,.665,0,1l.038.032.945.735,1.3.682c6.78-1.225,12.577,2.285,18.756,3.932a26.235,26.235,0,0,1,3.5,1.481h0c-1.968,2.631-4.34.036-6.476.5h0c-2.875-.76-5.772-1.65-8.079,1.254a7.882,7.882,0,0,0,3.3,2.4c-.009.329.15.483.478.463h0a.288.288,0,0,0,0,.438c.32-.131.639-.26.958-.393q0,.545,0,1.089l1.619.973a.723.723,0,0,0,.2.708l.9.056,1.464.112-1.462-.111q-.11.375-.244.742c.511.647,1.262,1.332.618,2.181-.62.817-1.546.428-2.3.088-3.424-1.541-6.83-3.122-10.243-4.688l-1.717-.888c-1.005-1.55-2.572-1.777-4.226-1.8a4.425,4.425,0,0,0,2.567,3.484c3.815,3.353,7.524,6.839,11.479,10.019,3.339,2.685,4.1,5.521,2.57,9.632-3.689,9.9-6.977,19.958-10.428,29.951q-.155.822-.312,1.644h0q-.328.878-.656,1.757-.252,1.454-.5,2.908v0c-1.841,2.1-2.473,4.666-2.87,7.328l-.438,2.083v0c-1.455,1.182-1.957,2.909-2.609,4.551l-4.289-.265h0a5.666,5.666,0,0,0-3.853-2.283l-2.637-1.34a4.823,4.823,0,0,0-.327,1.485,4.823,4.823,0,0,1,.327-1.486c-2.725-3.159-7.826-2.447-10.235-6.356,3.58,6.385,8.737,11.311,13.48,16.574l-1.512.439h0a18.461,18.461,0,0,0-6.891-2.068l-1.658-.282c-.542.018-1.084.038-1.625.051.541-.014,1.084-.033,1.625-.051a27.318,27.318,0,0,0-11.962-3.332l-2.48-.276c-13.107-2.462-16.876-14.741-24.267-23.279,5.624,10.272,10.184,21.3,21.33,27.115l.106.05h0c2.4,3.11,5.714,4.991,9.144,6.673,1.741.853,3.541,1.3,4.742-.932l1.641.038h0a11.657,11.657,0,0,0,5.983,2.553l1,.753c2.244,1.512,2.384,2.743,1.352,3.816,1.032-1.073.893-2.3-1.352-3.816q-.348,2.6-.695,5.2a2.816,2.816,0,0,0-.336.709,5.487,5.487,0,0,0-2.67,3.192,2.216,2.216,0,0,0-.5.192h0q-1.355-.827-2.708-1.656l-1.689-.911h0a5.273,5.273,0,0,0-3.468-2.408l-.018-.018c-1.551-.206-3.145-.968-4.691-1.156,1.546.188,3.14.95,4.691,1.156a55.3,55.3,0,0,0-12.671-8.639v0c-3.2-3.763-8.415-4.223-11.978-7.735-5.709-5.625-10.072-12.164-14.638-18.609-4.294-5.141-6.474-11.75-11.288-16.551,2.424,5.867,4.762,11.749,9.256,16.392,6.041,14,17.927,23.145,28.326,33.548-12.316-3.958-24.108-8.436-28.687-22.156a16.376,16.376,0,0,0-1.983-3.763c-.925-1.394-1.428-3.22-3.863-4.376,3,11.652,7.858,21.734,12.594,31.863a2.562,2.562,0,0,0,1.5,1.772q-.319-.877-.638-1.753c-.009-.191-.028-.379-.053-.564.025.185.043.373.053.564q.32.876.638,1.753l1.095,1.65c.071,1.967,1.316,2.936,3,3.525l2.879,3.454a3.06,3.06,0,0,1-2.711,2.688c-10.622-5.6-19.916-12.626-25.18-24.017,2.947,15.651,10.833,27.074,26.273,32.17l.853.21a4.427,4.427,0,0,0,4.657-1.772c5.188-.36,9.843,2.62,15.009,2.4l3.265.669h0c1.88,1.539,3.875,1.377,5.923.391l1.818-.2c.445,4.467-4.348,3.949-6.055,6.367l-3.271,1.5a2.867,2.867,0,0,1-2.534,2.1,2.867,2.867,0,0,0,2.534-2.1,4.719,4.719,0,0,0-4.406,2.016l-2.456,1.4c-.211.242-.413.511-.614.783.2-.271.4-.54.615-.783l-5.185,1.741-2.586-1.73a3.637,3.637,0,0,0-2.451.5,3.642,3.642,0,0,1,2.451-.5,11.368,11.368,0,0,0-6.344-3.052c-1.109-.191-3.028.538-1.952,1.546,2.829,2.651,2.923,7.085,6.416,9.13a4.768,4.768,0,0,1,.445.644,12.532,12.532,0,0,1,4.078,5.1,12.535,12.535,0,0,0-4.079-5.1c.428,3.687,2.1,6.482,5.677,7.9l.049.036h0a97.848,97.848,0,0,1,3.9,14.378c.4,1.837.913,3.752,3.381,3.668,2.3-.078,3.7-1.144,3.81-3.653.046-1.012-.163-2.692,1.514-2.458,1.4.194,1.191,1.795,1.234,2.857.462,11.456,1.833,22.885,1.015,34.382a14.915,14.915,0,0,0,.254,4.208c.232,1.055.745,2.457,1.962,2.534,1.514.1,1.461-1.5,1.7-2.527.886-3.876,1.687-7.772,2.52-11.661a1.487,1.487,0,0,0-.7.455,1.487,1.487,0,0,1,.7-.455l.054-1.761c1.179-1.947.792-4.123.884-6.223.078-1.767.183-3.472,2.4-3.911q0-6.312-.006-12.623,0,6.312.006,12.623.157.813.316,1.627a3.689,3.689,0,0,1,1.6,2.856,3.687,3.687,0,0,0-1.6-2.856c-.556,10.324,1.02,20.6.746,30.915a8.27,8.27,0,0,0,.675,4.141c-.812,1.98-2.508,1.631-4.1,1.556a135.318,135.318,0,0,0-19.7-5.557l-1.642-.37a23.183,23.183,0,0,0-2.346-.955c-17.839-5.143-35.661-10.345-53.534-15.363-9.816-2.757-19.458-6.147-29.476-8.173l-1.615-.329h0c-11.195-4.025-22.751-6.816-34.184-10.029l-.849-2.632q-.288-.426-.542-.856.253.43.542.856a34.061,34.061,0,0,0-1.678-14.512q-.091-2.972-.182-5.943-1.878-1.818-1.492-3.626-.388,1.809,1.492,3.626.013-3.009.022-6.018l.934-1.5h0c10.7,1.3,21.442.605,32.168.617,1.02,0,2.272.482,3.579-1.5-10.577-2.64-21.044-2.784-31.435-3.483a2,2,0,0,0,.239.661,2,2,0,0,1-.239-.661l-2.264-1.377v0c2.01-1.6,1.9-4.074,2.582-6.225l1.39-.237a2.674,2.674,0,0,1,1.986-1.428,2.676,2.676,0,0,0-1.986,1.428,7.146,7.146,0,0,0,4.316-.68l2.474.056h0c1.48.823,2.916.963,4.268-.265l1.741.161c3.015,1.289,5.755.007,8.536-.908l2.545-.109a5.027,5.027,0,0,1,3.017-1.657,5.024,5.024,0,0,0-3.017,1.658l6.883-.248,5.031.161a6.213,6.213,0,0,0,.533-2.593,6.219,6.219,0,0,1-.533,2.594c2.04.081,3.236-.856,3.258-2.935a3.351,3.351,0,0,0-3.2-3.717l-2.575.049c-.761.128-1.519.234-2.271.312.753-.079,1.51-.184,2.271-.312-5.514-2.04-11.47-1.749-17.089-3.239q.485.36.978.681-.493-.321-.978-.681l-2.484-.3h0a6.813,6.813,0,0,0-4.358-1.195l-2.509-.379a2.53,2.53,0,0,1-.878.382,2.53,2.53,0,0,0,.878-.382,3.2,3.2,0,0,0-2.59-.675c-4.313-.539-8.052-2.6-11.858-4.481l.9-7.535q-1.145-.951-2.294-1.9l-2.836,8.635a8.5,8.5,0,0,0,.577,8.538,5.713,5.713,0,0,1,.73,4.9c-1.676,5.64-1.659,11.513-2.433,17.277-1.338,4.171-.119,8.511-.847,12.722.338,3.964-.35,7.878-.536,11.816-.154,3.265-1.693,3.742-4.444,2.938q-11.98-3.5-24-6.859c-1.625-.457-3.3-.737-4.95-1.1a7.132,7.132,0,0,0-6.869-.746c-8.323,3.289-16.729,6.365-25.045,9.666-10.95,4.348-22.179,7.989-32.858,13.023-1.541-.422-1.773-1.63-1.828-2.98-.6-14.854-1.1-29.71-.6-44.577-.857-16.2-1.054-32.406-1-48.622-.572-29.336-1.179-58.67-1.67-88.007-.061-3.687-.863-6.19-5.186-5.837-7.492-1.811-14.765,2.229-15.242,8.624-.422,5.645-.718,11.308-.829,16.968-.411,20.963-.353,41.943-1.23,62.884-.427,10.189-.115,20.4-.984,30.567.237,2.792.57,5.589-.428,8.318-.6,23.278-1.233,46.554-1.741,69.833-.066,3.026-1.269,4.68-4.026,5.706-6.52,2.426-12.979,5.015-19.462,7.539C.032,470.625.024,470.626.023,478.574Q.009,585.993,0,693.412H2.559q.3-105.566.6-211.132c0-1.564.1-3.13.046-4.691a4.945,4.945,0,0,1,3.528-5.208c4.761-1.869,9.332-4.644,14.259-5.58,10.916-2.072,12.954-8.779,13.058-18.758.386-36.956,1.54-73.9,2.422-110.853q.836-34.96,1.731-69.919c.117-4.543,3.29-7.907,7.207-7.832,4.118.077,4.973,1.388,5.042,7.453q.5,43.923,1.033,87.846a11.426,11.426,0,0,0,.685,5.026l.046,6.024a5.5,5.5,0,0,0-.136.839c-.212,27.8.145,55.59.814,83.38.112,4.665,2.6,3.309,5.034,1.784l3.544-1.381h0a5.187,5.187,0,0,0,1.259-.149c18.349-6.982,36.94-13.343,54.853-21.44,2.005-.906,3.881-2.506,6.356-1.55q.02,2.081.04,4.163a2.918,2.918,0,0,1,2.189,2.761,2.919,2.919,0,0,0-2.19-2.761c-.1,2.123-.293,4.246-.294,6.37q-.018,127.807-.005,255.612H481.063q0-79.872,0-159.744c0-1.278-.084-2.56,0-3.833M168.354,360.085h0a.533.533,0,0,1-.226.543.533.533,0,0,0,.224-.544m-16.445-34.637c-.7.537-.575,1.19.607,1.993h0c-1.181-.8-1.3-1.457-.606-1.993M361.847,214.595c.7.4,1.478.749,1.721,1.408-.243-.659-1.022-1.01-1.722-1.407-1.242-2.9-1.916-6.145-3.725-8.7,1.81,2.553,2.484,5.8,3.726,8.7M301.172,86.958a2.458,2.458,0,0,0,.786-.3l1.651-.061c4.143,1.05,8.4,1.207,12.624,1.563a18.361,18.361,0,0,1,8.755,1.143A6.99,6.99,0,0,1,331.31,93.4c6.489,12.418,10.112,25.838,13.727,39.26a5.416,5.416,0,0,1,.184.83c.248,2.386,2.466,4.646,1.435,6.925-1.37,3.029-4.568-.005-6.5,1.145-5.228,3.107-8.234-.1-11.5-3.437-2.575-2.636-6.234-3.224-9.641-4.154a23.5,23.5,0,0,0-5.4-1.123c-9.543-.262-14.9-6.294-19.4-13.676-1.542-2.535-2.846-5.24-4.957-7.408a3.514,3.514,0,0,1-.765-1.5c-1.553-5.663,6.875-21.125,12.68-23.306m-80.55,27.954c8.314-12.456,19.242-21.253,34.219-24.294,4.527-.92,8.34.642,11.544,3.856a122.613,122.613,0,0,1,19.283,20.79c2.483,3.454,4.6,7.175,7.139,10.584,2.3,3.083,1.06,3.6-2.05,3.955-16.073,1.843-32.015-.069-47.983-1.409-1.405-.119-2.958-.57-4.2-.151-5.414,1.826-9.9,1.184-14.349-2.907-3.174-2.922-4.882-5.8-3.6-10.423m6.278,29.815a4.547,4.547,0,0,0-.738.81,4.518,4.518,0,0,1,.738-.81m-79.6,83.7-.305-.061q-.143-.8-.286-1.6c-1.905-.783-3.873-1.443-5.7-2.383-1.991-1.026-3.22-2.625-2.559-5.079-.131-.119-.259-.24-.387-.363.127.123.256.243.387.363q.381-.453.764-.905l.813-.847c3.788,1.945,5.359,5.5,6.7,9.223l-.015-.026-.015-.026h0l.008.043.009,0q.293.828.584,1.656a5.413,5.413,0,0,0,3.058,1.934,5.426,5.426,0,0,1-3.061-1.934m-3.517-11.769q-1.216-2.916-2.433-5.833c-.468-1.117-.591-2.237.413-3.094.9-.765,1.88-.294,2.758.159,2.136,1.1,3.879,2.247,4.5,5.058.539,2.457,1.034,5.294,3.375,7.046.119,2.374,2.776,3.976,2.014,6.618a4.671,4.671,0,0,1-.278.858,4.683,4.683,0,0,0,.278-.857q-1.68-.515-3.36-1.027c-3.157-2.378-3.591-6.97-7.262-8.928m8.685,14.31c-.293-.1-.592-.183-.892-.265.3.084.6.169.894.266.891.483,1.854.848,2.767,1.3-.913-.449-1.877-.815-2.769-1.3m16.044,6.4a5.542,5.542,0,0,1,1.7,1.508,5.542,5.542,0,0,0-1.7-1.508m2.108,2.164a6.08,6.08,0,0,1,.556,1.572,6.08,6.08,0,0,0-.556-1.572m1.08,3.686a2.222,2.222,0,0,1,1.171,1.83,2.224,2.224,0,0,0-1.171-1.83m8.5,13.978a1.453,1.453,0,0,1-.425.211,1.453,1.453,0,0,0,.425-.211,1.009,1.009,0,0,0,.392-.635,1.009,1.009,0,0,1-.392.635m9.789,8.454c-.015-.1-.122-.181-.255-.261.133.08.241.164.255.261.11.74.223,1.4.347,1.988-.125-.589-.237-1.248-.347-1.988m.771,3.551a5.072,5.072,0,0,0,.916,1.673,5.072,5.072,0,0,1-.916-1.673m39.451-5.089c-.929.178-1.933.208-2.835.443.9-.235,1.905-.265,2.835-.444a10.488,10.488,0,0,1,.233-1.975,10.5,10.5,0,0,0-.233,1.976m-.2-20.53a10.892,10.892,0,0,0,.483-2.822,10.892,10.892,0,0,1-.483,2.822m3.394,29.345a7.906,7.906,0,0,0,.18-1.515,7.906,7.906,0,0,1-.18,1.515m3.725-30.525a3.83,3.83,0,0,0,1.167.381,3.83,3.83,0,0,1-1.167-.381m20.361-3.053c.99-.449,1.957-.994,2.946-1.443-.989.449-1.956.994-2.946,1.443m1.394,6.589a19.089,19.089,0,0,0,3.02-1.239,19.089,19.089,0,0,1-3.02,1.239m4.418-9.154c1.385-.527,2.745-.864,3.964.331-1.219-1.194-2.579-.858-3.964-.331m9.977-10.853c.108-1.155.383-2.336-.21-3.391-2.16,6.308-5.665,11.237-12.438,13.406-3.056.979-6.294,1.749-8.958,3.755l-1.741.765a4.4,4.4,0,0,0-3.491,1.517L243.13,243.4q-.893-.028-1.787-.058a1.965,1.965,0,0,0,.432.467,1.965,1.965,0,0,1-.432-.467l-1.352-.562c-1.324-1.991-3.193-3.5-4.29-5.754-9.97-20.493-19.251-41.387-33.6-59.407l-1.737-.271-.187,1.861a15.383,15.383,0,0,1,4.393,5.865q11.6,25.548,23.218,51.088c2.15,4.7-.728,8.5-1.915,12.617h0c-7.129,2.762-13.546,7.1-20.927,9.341-2.7.821-5.078,1.124-7.763-.167-3.023-1.454-6.1-2.6-9.787-1.947a4.76,4.76,0,0,1-5.537-4.234c-.34-8.818-6.789-14.775-9.66-22.33-2.171-5.713-7.369-10.036-7.447-16.663-.246-1.358-.42-2.878-1.931-3.282-1.1-.294-1.648.692-1.878,1.713-.146,3.868,1.686,7.4,1.919,11.2-3.262.232-5.033-1.906-6.7-4.214-1.032-3.578-4.65-6.054-4.345-10.2-.55-.969-1.074-1.964-2.288-2.262l-1.174-.174-3.035-.732c-.033-.018-.067-.038-.1-.059l.153-.024c-1.158-7.024.148-13.935,1.791-20.638,1.119-4.566,5.818-6.774,9.279-9.624a47.942,47.942,0,0,1,14.168-7.665,10.256,10.256,0,0,0,5.58-4.865c2.711-4.659,5.713-9.151,8.317-13.866,4.108-7.438,10.158-12.088,18.53-13.584,5.021-.9,10.046-1.906,15.114-2.374,7.074-.654,9.5,2.689,6.724,9.044-.732,1.677.04,3.811-1.708,5.095l1.28,5.345q.044.87.086,1.741a8.374,8.374,0,0,1,1.448,1.451,8.4,8.4,0,0,0-1.448-1.451,8.554,8.554,0,0,0,3.117,7,2.157,2.157,0,0,0,.4.626,17.359,17.359,0,0,0,4.819,6.888l.683.963c2.018,3.83,4.049,7.65,7.886,10.051l.875.917c5.883,6.112,12.943,10.54,20.466,14.305q.868,1.385,1.735,2.773,4.219,10.676,8.436,21.353.06,2.157.121,4.314c.593,1.055.317,2.235.21,3.391m-51.312-10.556a1.075,1.075,0,0,0-.117.227,1.075,1.075,0,0,1,.117-.227,6.013,6.013,0,0,1,.619.271h0a5.836,5.836,0,0,0-.619-.271m34.912-26.182a14.84,14.84,0,0,0,4.291,2.092,14.84,14.84,0,0,1-4.291-2.092m13.1,16.774a23.038,23.038,0,0,0,.839,2.3,23.038,23.038,0,0,1-.839-2.3m25.011-3.74h0a11.888,11.888,0,0,1,1.343-1.485,11.888,11.888,0,0,0-1.343,1.485m11.817,24.041a5.018,5.018,0,0,0,1.128-.647,5.018,5.018,0,0,1-1.128.647m1.581-1.049a4.355,4.355,0,0,0,.876-1.309,4.355,4.355,0,0,1-.876,1.309m47.784,36.213c.9-.554,1.351-2.015,2.076-4.782-2.517,3.092-5.5,3.777-9.146,2.008-.8-.387-1.92-.107-2.893-.133-4.569-1.008-8.977-2.719-13.679-3.145-1.324-3.026-4.154-4.489-6.592-6.358-2.707-3.719-5.43-7.426-8.111-11.165-.963-1.343-2.224-2.576-2.068-4.452-2.091-.818-2.585-2.866-3.392-4.606-.309-.666-1.2-1.569-.457-2.277a2.4,2.4,0,0,1,2.788-.143q17.585,8.712,35.174,17.416c2.405-.013,4.358,1.51,6.628,1.959.813-.259,2.17-.161,2.316-.862-.145.7-1.5.6-2.315.864q1.364,2.887,2.729,5.774l1.653-4.288q.109-1.24.217-2.483.21-1.788.425-3.577l-3.425,2.15v0c-4.653-4.6-9.19-9.377-16.066-10.608-.8-1.425-2.077-1.619-3.524-1.388q-2.913-1.018-5.823-2.04a2.084,2.084,0,0,0-2.011-1.234c-6.714-3.013-14.751-1.893-20.9-6.685.113-4.207,3.368-1.249,4.925-2.161a2.847,2.847,0,0,0,.683.5c10.98,3.708,22.586,4.08,33.838,6.343a1.586,1.586,0,0,0,2.038-1.6c.168-1.586-.325-3.016-2.018-3.233-2.383-.3-4.83-.09-7.219-.364-9.75-1.119-19.823-1.165-27.966-7.958l0,.017a3.185,3.185,0,0,0-2.78-2.162,2.263,2.263,0,0,0-.633-.306,4.741,4.741,0,0,0-3.611-2.353l-1.092-.931c-.052-.047-.091-.09-.139-.136.048.046.087.089.139.136q.613-1.673,1.225-3.346a2.224,2.224,0,0,0,1.589-1.8q.384-.85.766-1.7a15.751,15.751,0,0,0,4.352-7.774c-3.123,2.309-6.3,4.478-8.393,7.834l-4.825,1.383a24.208,24.208,0,0,0-2.625.624,23.814,23.814,0,0,1,2.625-.624q.252-1.568.5-3.135l.809-.763c4.93-2.261,6.577-7.013,4.639-13.914-1.734,2.007-2.214,5.217-5.5,5.285-.277-2.087-1.5-2.381-3.353-1.98-4.421.959-8.862,1.827-13.309,2.656-2.365.44-5.61,1.387-6.939-.284-2.755-3.464-6.242-4.758-10.74-5.1,1.994-2.444,4.038-1.891,5.939-2.042,1.616-.128,3.893.116,3.968-2.181.077-2.335-2.092-2.706-3.96-2.954-.836-.111-1.714.041-2.538-.112-8.172-1.516-14.565-6.138-20.38-11.756l-1.8-.493c-2.882-1.965-5.756-3.943-8.649-5.891-8.184-5.509-10.256-13.408-8.969-22.677.236-1.7,1.329-2.368,2.688-2.943a14.012,14.012,0,0,1,8.4-.453c10.788,2.21,21.749,1.9,32.645,2.517a39.489,39.489,0,0,0,13.9-1.513c3.89-1.192,7.591.572,11.314,1.144,8.658,1.334,17.559,1.8,25.707,5.43,5.571,2.478,9.481,6.074,9.48,13.1,0,5.9,3.235,11.114,5.65,16.394,4.715,10.3,8.224,21.142,13.747,31.087a1.738,1.738,0,0,0,.829,1.736c1.021,4.416,3.535,8.058,6.061,11.695l.869.194c-.289-.065-.579-.129-.868-.191-.071.357-.143.711-.215,1.066.445.094.889.188,1.331.285a1.849,1.849,0,0,1,.393.558c-.114.278-.243.572.233.22.294.2.589.4.883.608a7.641,7.641,0,0,0,2.3,4.387h0q.2.744.393,1.488c.275.026.552.044.828.055l1.635,2.578c.98.509,2.6.724,2.666,1.653-.07-.929-1.688-1.144-2.667-1.653l-1.634-2.578c-.276-.011-.554-.029-.828-.055A4.584,4.584,0,0,1,362.5,225.1c-3.134-1.554-3.287-.008-2.557,2.459a1.175,1.175,0,0,0,.195,1.639q.06.867.119,1.734a4.083,4.083,0,0,0,.685,3.394c.91,2.222.628,4.547.588,6.851q-.214,1.788-.425,3.577c2.552-2.086,2.476-4.638,2.113-7.238.363,2.6.44,5.153-2.111,7.238q-.109,1.242-.219,2.483c.741,2.3,1.794,4.675-1.477,5.983q-.082.835-.162,1.671-.413.054-.828.086l-.166,1.667c-.725,2.767-1.177,4.228-2.076,4.782m-42.111-48.5c.137,1.426,1,2.776,1.122,4.2-.12-1.426-.985-2.776-1.122-4.2m-7.253-9c.111-.038.224-.073.339-.11-.114.037-.228.073-.339.11m.339-.111a2.551,2.551,0,0,1,.571-1.109,2.551,2.551,0,0,0-.571,1.109m42.916,67.228a.6.6,0,0,1,.49.135.6.6,0,0,0-.49-.135M302.09,417.709c-1.034-.126-.979-1.2-.974-2s-.037-1.877,1-1.981c1.351-.135,1.312,1.081,1.479,2.006-.171.925-.147,2.138-1.506,1.971m8.052-35.465a2.757,2.757,0,0,1,1.454-.754,2.757,2.757,0,0,0-1.454.754m49.265-129.025-.161,1.672c-.276.036-.551.065-.829.086-.555-.806-.315-1.374.523-1.766.155,0,.311,0,.467.008M350.151,120.63q.32.291.644.582c-.665.3-.9.13-.644-.582M228.689,406.879c.044-1.408,1.469-1.551,2.6-1.6,1.156-.047,2.472.09,2.482,1.613.009,1.354-1.1,1.832-2.389,1.981-1.179-.249-2.741-.34-2.69-2m91.755-222.247c-.271,1.328-.973,2.372-2.48,2.423-.7.024-.946-.6-.845-1.193a3.111,3.111,0,0,1,2.21-2.724,1.159,1.159,0,0,1,1.115,1.494m-85-35.5c10.073,6.958,22.671,6.879,33.613,11.415l-.169,1.066c-4.517,0-9.144.624-13.527-.143-6.93-1.214-13.935-2.85-18.579-9.066-.759-1.016-1.746-1.836-1.338-3.271m43.356,3.282,3.153.11a33.985,33.985,0,0,1-4.82,9.3c-.725,1-1.444,2.252-3.029,1.617-1.608-.644-.98-1.918-.981-3.187-.008-4.084,3.719-5.293,5.677-7.844m-43.343-3.342c-.007.02-.007.039-.013.06l-.023-.015.015-.02-.015.02-.241-.026.277-.02M359.232,251.525q.826-2.144,1.652-4.288c.741,2.3,1.794,4.675-1.478,5.982q-.234-.012-.466-.008l.292-1.686M179.24,343.6q.215.548.429,1.1c-1.789,1.557-3.522,3.185-5.387,4.646a3.355,3.355,0,0,1-4.328.045c-.811-.587-1.737-1.191-1.459-2.353.405-1.688,2.005-1.925,3.329-2.213,2.445-.532,4.941-.827,7.416-1.221M162.3,238.287c.227.828-.445,1.263-1.056,1.61a18.855,18.855,0,0,1-10.883,2.183c2.653-3.44,6.381-4.046,10.171-4.473.677-.076,1.52-.228,1.769.679M328.38,160.22c.062.843.026,1.694.031,2.541-1.913-.072-2.412,1.554-3.433,2.683-4.036,4.462-8.2,8.806-12.354,13.163a1.684,1.684,0,0,1-1.98.526c-1.029-2.152,1.564-3.449,1.39-5.41,3.242-6.2,9.877-9.151,13.968-14.55a2.236,2.236,0,0,1,1.827-.719c.854.166.506,1.129.553,1.766M220.167,146.461a5.1,5.1,0,0,1-2.087,3.546c-6.823,4.374-11.551,10.277-13.439,18.3a8.847,8.847,0,0,1-1.262,2.195q.411-2.969.823-5.935a1.692,1.692,0,0,0,.221-1.964c1.013-7.171,5.764-11.632,11.281-15.522a5.844,5.844,0,0,1,4.463-.616m35.288,84.226c-5.408,7.575-10.387,8.312-16.449,3.189-.761-.643-1.639-1.347-1.312-2.448a1.68,1.68,0,0,1,2.468-.914c4.776,2.119,9.65,1.165,15.294.173m-53.325-44.044c-5.886,1.926-12.05,2.577-17.834,5.34a17.471,17.471,0,0,0-9.214,9.841,20.836,20.836,0,0,0-1.971,7.3c-1.86.1-2.639-.749-2.229-2.589.765-3.428,1.472-6.871,2.352-10.27a8.515,8.515,0,0,1,4.307-5.509,93.7,93.7,0,0,1,17.044-7.528c3.773-1.169,5.27,1.77,7.545,3.41M294.881,99.96c1.66-2.957,2.284-6.878,6.27-8.067l.751,1.826c-.486,3.351-1.39,6.394-5.149,7.537-1.324.4-2.782.327-1.872-1.3M223.2,119.715c-.226-.661-.338-1.362-.5-2.045l2.786-5.018,1.4-.224a5.8,5.8,0,0,1,.714.23c-.074,2.243.834,4.464.148,6.72-.358,1.177-.287,2.881-1.791,3.044-1.634.176-2.292-1.344-2.758-2.708" transform="translate(0 -12.412)" fill="#141414"/>
</svg>
