<svg xmlns="http://www.w3.org/2000/svg" xmlns:xlink="http://www.w3.org/1999/xlink" width="381" height="598" viewBox="0 0 381 598">
  <defs>
    <clipPath id="clip-path">
      <rect id="Rectangle_39" data-name="Rectangle 39" width="381" height="598" transform="translate(-0.28 -0.223)" fill="#de2020"/>
    </clipPath>
  </defs>
  <g id="image_fabric" transform="translate(0.065 0.629)">
    <g id="Group_30" data-name="Group 30" transform="translate(0.215 -0.406)" clip-path="url(#clip-path)">
      <path id="Path_283" data-name="Path 283" d="M365.665,463.036c-6.153-13.012-8.827-27.406-13.915-40.367,1.005-2.394,3.242-3.484,2.306-5.889-4.263-2.37-9.044-3.686-12.832-7.021a.786.786,0,0,1-.669-.276c-1.82-.314-3.652-.6-4.859-2.337l-2.015-.291-1.494.31-1.62.36c-1.085,1.1-2.379,1-3.7.717l-6.84,2.159-4,1.846c-1.675,2.85.569,3.914,2.108,5.465-1.273,6.9-2.259,13.93-5.186,21.579-5.357-9.01-6.135-18.683-9.942-27.275l2.626-3.645q-.355-1.11-.712-2.22a2.944,2.944,0,0,1-2.756-1.613q-.738-.254-1.476-.514c-1.193-.109-2.467.129-3.442-.906L293.3,402l-1.422-.592c-6.586-1.759-13.115-4.186-20.046-1.911-2.693,1.836-7.391.3-8.35,5.341l2.561,3.567c-.735,4.344-1.5,8.872-2.395,14.138-7.3-1.846-14.151.092-21.092.761-4.711,2.41-9.888,4.027-13.133,8-.409,2.517,1.69,2.811,1.938,4.137.047,2.007-.753,3.2-2.474,3.7-3.571-.115-3.523-4.732-6.381-5.718l-5.364,2.425a8.093,8.093,0,0,1-4.558,2.071c-.548,1.659-1.289.465-1.969.149q-.905-33.873-1.8-67.747c-.744-29.809-1.375-59.62-2.192-89.426-.149-5.446-1.295-10.865-.269-16.333-.925-7.605.254-14.981,2.175-22.275-.44-6.309-6.008-11.966-11.867-12.017-3.283-.027-6.566,0-9.848.006l-.311.814a27.308,27.308,0,0,1-5.212,7.206q-.3.673-.593,1.346-.066,3.366-.134,6.732l.1.307.35,1.042c1.666,2.647.82,5.794,1.542,8.629l-.231,4.35c.475,1.833.786,3.657-.3,5.392q-.208,5.325-.417,10.65c-.172,11.472-.249,22.948-.54,34.417-.319,12.568-.786,25.134-1.282,37.7-.431,10.925-.971,21.845-1.525,32.764a13.386,13.386,0,0,1-.847,2.955c-1.595,14.449-1.305,28.989-1.907,43.486,2.791,3.419-.706,3.8-1.971,5.211-1.911-.466-1.905-1.894-1.975-3.223q-1.2-22.819-2.367-45.639Q167.7,354.4,166.325,324.38a21.243,21.243,0,0,1,.418-3.53,6.784,6.784,0,0,1-.212-4.637,158.919,158.919,0,0,1-1.34-29.026q-.208-3.7-.419-7.413a16.954,16.954,0,0,1-.224-10.11l-.53-9.232c-1.226-3.885-.9-7.824-.365-11.771q-.183-6.546-.367-13.095c-.283.033-.565.068-.848.1h0q-.085-1.563-.168-3.125.279-1.206.557-2.41l-.3-7.426c-1.338-1.752-.914-3.631-.36-5.519q-.23-8.5-.459-17c-1.065-1.4-.631-3.066-.668-4.619q-.552-22.909-1.036-45.819l.222-2.369v0c1.264-5.438,2.362-10.9,2.223-16.549-3.29-14.72-12.544-19.383-29.468-14.849a3.1,3.1,0,0,1-2.633,1.713c-7.335,6.235-6.762,14.766-6.086,23.328,2.637,1.273-.735,4.1,1.282,5.528l.137,3.216q-.441,19.6-.881,39.2-.607,27.158-1.234,54.316c0,.175-.135,11.191-1.51,16.423a8.077,8.077,0,0,1-.426,6.631c.444,16.288-.426,32.53-1.551,48.763.991,11.578-.53,23.111-.588,34.67A2.269,2.269,0,0,1,118,352.257c.037,3.464.122,6.928.085,10.391-.013,1.209.484,2.835-1.436,3.136q-.225,2.66-.452,5.325l-.967.071c-.285-3.424-.791-6.847-.815-10.274-.1-13.912-.036-27.825-.085-41.737a15.159,15.159,0,0,0-.638-3.051h0q-.11-3.607-.221-7.214h0q-.271-22.555-.527-45.109c-.014-1.314.194-2.629.3-3.944q.019-1.621.04-3.244c-.143-3.858-.527-7.722-.394-11.568.813-23.355-.778-46.671-.875-70.008-.04-9.477.242-18.954.379-28.432l-.463-17.945a3.523,3.523,0,0,1-.328-3.8c-.2-2.976-.789-5.955.059-8.924-.883-4.866-.271-9.743-.1-14.617a1.509,1.509,0,0,1,.645-2.375q.287-.733.575-1.467l-.039-.979a31.25,31.25,0,0,1,1.84-12.623c1.168-3.268,1.144-7.684-2.32-10.565-1.365-1.135-1.266-2.777-1.035-4.391-3.018-4.639-8.145-4.959-12.474-5.491-6.274-.771-12.749-1.973-19.114-.09-1.426,1.543-3.43,1.524-5.205,2.02-5.656,1.579-8.743,5.659-10.331,11.315a13.7,13.7,0,0,1,.1,8.094q.385,1.077.774,2.155c.856.268,1.27.775.841,1.735a12.249,12.249,0,0,1-.2,6.425q.21,1.2.419,2.392l1.272,1.58c1.177.463,1.422,1.233.69,2.325q.077,4.065.154,8.134c.463,4,1.135,8.012-.515,11.909q-.234,2.166-.469,4.338a216.981,216.981,0,0,1,.21,30.712c-.2,4.248-.529,8.49-.8,12.734q-.2,15.182-.406,30.365c-.357,12.306-.69,24.614-1.089,36.918-.1,3.057-.413,6.106-.63,9.161.653,8.7-.3,17.3-1.268,25.911l.39.763a4.2,4.2,0,0,1,.2.579c.018.084-.066.191-.1.288-1.092,19.951.579,40-1.566,59.884-.914,8.474.544,17.015-1.335,25.378.02,14,0,28,.1,42a15.552,15.552,0,0,1-1.846,8.032c1.226,1.457.905,3.112.64,5.3-2.149-1.878-3.8-3.608-4.659-6.061l-1.332-2.325c-3.727-3.13-4.3-8.786-9.047-11.789H41.756c-2.3-13.231-.514-26.614-1.169-39.227-3.191-1.94-5.719-.941-8.036-1.563-1.9,2.059-3.551,4.249-2.933,7.4,1,5.078-.075,10.081-.427,15.11a3.221,3.221,0,0,1-.209,3.655c-.387,7.054,1.107,14.2-.943,21.171q.424.989.847,1.971c-6.739,5.026-14.1,8.895-21.411,12.869l-2.7,2.319c.221,1.118.437,2.211.653,3.3q.344.534.69,1.068l-.907.441a2.659,2.659,0,0,1-.748,3.362H0V609.562H380.962V455.212c-7.01-1.86-9.875,5.171-15.3,7.824" transform="translate(-0.219 -11.785)" fill="#d91c1c"/>
      <path id="Path_284" data-name="Path 284" d="M406.32,382.5q.19.86.383,1.722a2.064,2.064,0,0,1,.179,2.944q-.015.914-.031,1.832-.138,4.283-.277,8.562-.1,11.251-.194,22.507.2.767.4,1.534c3.535-1.355,6.47-4.352,10.526-4.283,3.44-.843,1.058-4.027,2.1-5.874a34.516,34.516,0,0,0,1.744-4.273q.033-1.023.067-2.041l-.663-1.692c-.269-4.359-.634-8.715-.778-13.078-.142-4.279,1.226-8.342,2.022-12.127-.457-2.19-2.354-3.317-2.117-5.4l-8.031-.82a11.014,11.014,0,0,0-5.556,4.084q-.181,1.505-.362,3.009c.5,1.073,1.038,2.138.588,3.392" transform="translate(-96.776 -72.484)" fill="#d91c1c"/>
      <path id="Path_285" data-name="Path 285" d="M9.415,330.768,0,320.1V304.019c3.119,1.95,1.968,5.672,2.991,8.482,3.85,10.576,11.345,13.818,20.3,6.775,2.986-2.348,5.467-1.678,6.314,2.5-4.126,7.74-9.047,10.259-16.846,8.85a14.939,14.939,0,0,0-3.343.139" transform="translate(-0.219 -59.156)" fill="#b4a598"/>
      <path id="Path_286" data-name="Path 286" d="M493.785,389.66c-2.021.19-2.363,2.192-3.316,3.492-3.748,5.118-11.429,6.371-15.022,2.451-1.747-1.906-1.95-3.621.175-5.39,2.679-.432,4.658,3.016,7.521,1.533,4.529-2.345,5.781-6.4,5.217-11.308-.331-2.882-1.7-5.6-1.265-8.614l.939.054,5.751,6.526Z" transform="translate(-113.042 -72.446)" fill="#b4a598"/>
      <path id="Path_287" data-name="Path 287" d="M490.815,541.574c-7.011-1.86-9.876,5.171-15.3,7.824-6.153-13.013-8.827-27.406-13.915-40.368,1.005-2.394,3.243-3.483,2.307-5.889l1.363-.184c3.006,2.653-1.411,5.071-.063,7.678,4.1,10.749,4.707,22.859,10.674,33.161a26.768,26.768,0,0,0,7.464-6.242h7.468Z" transform="translate(-110.072 -98.147)" fill="#b4a598"/>
      <path id="Path_288" data-name="Path 288" d="M28.892,484.452c-6.741,5.028-14.107,8.9-21.416,12.871-2.5-1.946-4.981.525-7.476.043v-1.608c10.108.62,16.446-7.673,24.629-11.6,1.141-.548,2.273-1.118,3.41-1.674q.425.993.85,1.978Z" transform="translate(-0.219 -94.134)" fill="#b4a598"/>
      <path id="Path_289" data-name="Path 289" d="M0,506.955c1.9-.472,3.656.245,5.432.758.227.355.457.711.687,1.067l-.905.441A6.346,6.346,0,0,1,0,510.975Z" transform="translate(-0.219 -98.901)" fill="#b4a598"/>
      <path id="Path_290" data-name="Path 290" d="M254.824,191.322c-2.79,2.364-3.77,6.632-7.532,7.977-2.181.048-4.358-1.87-6.533-.082-1.162,7.209-6.274,10.208-12,11.932-6.159,1.854-11.41-1.247-16.341-5.686-.873,4.338.6,7.991-.735,11.427-1.065-1.4-.632-3.063-.669-4.617q-.551-22.91-1.036-45.82.111-1.184.22-2.368c1.265-5.44,2.363-10.9,2.223-16.551,4.3,2.309-.352,6.8,2.482,10.065l19.65,1.986c-6.629,4.89-14.795.666-21.3,4.264-1.8,7.979-.962,15.484-1,22.95-.01,1.884-.3,4.478,1.754,4.771,2.843.406,5.656,2.566,8.912,1.2-1.53-4.644-4.737-8.253-4.118-14.176,3.038,2.96,4.913,6.132,8.852,6.289l5.032-2.259a3.284,3.284,0,0,1,2.215,2.9c.377,3.533,2.8,5.051,5.447,6.043,4.886,1.832,9.136.092,12.159-4s-1.734-4.757-3.261-6.834c-.109-.146.03-.5.062-.851l7.563-2.239a4.781,4.781,0,0,1,1.732,4.133c-.328,3.591-2,6.589-3.774,9.544" transform="translate(-50.191 -28.486)" fill="#b4a598"/>
      <path id="Path_291" data-name="Path 291" d="M212.949,273.449q.279-1.2.556-2.412c1.512,1.681,1.045,3.553.46,5.434l-.848.1q-.083-1.563-.168-3.125" transform="translate(-50.897 -52.692)" fill="#b4a598"/>
      <path id="Path_292" data-name="Path 292" d="M300.9,109.433c-6.853-3.952-13.745-1.207-21.556.4,1.92-9.144-.509-16.012-8.445-19.572-3.86-1.732-8.017-2.557-12.413-.048-1.061,5.614.2,12.247-5.494,16.639,3.709,3.7,9.578,4.822,9.359,11.116a4.836,4.836,0,0,1-2.539,4.437c-1.415.421-2.394-.153-3.539-1.1-1.433-6.09-5.563-8.773-11.678-8.832-2.931-2.188-2.409-5.47-.1-6.916,4.509-2.826,5.459-6.987,5.789-11.7-1.394-5.511-4.5-10.014-7.552-14.545q4.26-.124,8.519-.244c1.907,3.189,5.738,5,5.554,10.76,6.931-6.133,14.171-6.637,20.763-3.081,6.37,3.435,10.8,9.47,11.984,17.8,4.267.3,8.346,1.308,11.349,4.885" transform="translate(-57.947 -15.067)" fill="#b4a598"/>
      <path id="Path_293" data-name="Path 293" d="M282.88,283.086a11.414,11.414,0,0,0,3.779-5.281l-3.927-9.6c3.8-1.824,5.5-.566,7.148,4.746,1.405,4.529,2.855,9.084,8.445,9.453,7.7.509,10.443-3,10.349-13.186,5.08-.546,7.3,2.966,5.628,8.786-1.177,4.1-4.454,7.669-2.878,12.474,5.285,4.929,10.164,3.462,16.739-4.52h21.275q-.046.531-.093,1.06c-5.618.638-11.386-.989-16.71.905-9.1,16.68-18.032,17.809-27.2,3.38-2.952.339-6.06-1.525-9.287-.031-.943-4.7-5.68-5.426-8.036-8.7-1.733.934-3.381,2.176-5.232.515" transform="translate(-67.504 -51.983)" fill="#b4a598"/>
      <path id="Path_294" data-name="Path 294" d="M283.072,233.105c2.512-.635,4.749-2.409,8.015-1.734l2.335-3.274h5.064c.76,2.376,1.484,4.765,2.289,7.124,1.716,5.031-.418,9.6-5.2,10.282,1.92-4.827,1.588-8.949-3.443-11.614-4.236,2.167-7.1,6.3-9.8,8.25-1.706,2.829,1.283,4.919-1.482,6.169q-.574-2.106-1.151-4.214c.16-3.993.194-8.029,3.372-10.991" transform="translate(-66.783 -44.276)" fill="#b4a598"/>
      <path id="Path_295" data-name="Path 295" d="M361.539,387.994c.093,3.2,2.018,6.381.059,9.591q-.49-4.971-.98-9.943c.308.117.614.235.92.352" transform="translate(-86.04 -75.546)" fill="#b4a598"/>
      <path id="Path_296" data-name="Path 296" d="M252.178,72.364q.411-1.694.824-3.39c.664,1.384.76,2.615-.824,3.39" transform="translate(-60.233 -13.088)" fill="#b4a598"/>
      <path id="Path_297" data-name="Path 297" d="M405.5,380.84c.5,1.072,1.038,2.137.588,3.392-1.415-.659-1-2.135-1.318-3.28a2.318,2.318,0,0,1,.73-.112" transform="translate(-96.548 -74.213)" fill="#b4a598"/>
      <path id="Path_298" data-name="Path 298" d="M103.086,51.752a2.011,2.011,0,0,1-.466,2.643c-.849-1.078-.527-1.926.466-2.643" transform="translate(-24.525 -9.713)" fill="#b4a598"/>
      <path id="Path_299" data-name="Path 299" d="M250.6,75.645c-.423.024-.847.048-1.268.074a2.946,2.946,0,0,1,2.139-2.487l-.871,2.413" transform="translate(-59.556 -13.923)" fill="#b4a598"/>
      <path id="Path_300" data-name="Path 300" d="M357.966,383l1.462.9q.018.772.037,1.542c-1.2-.332-1.445-1.321-1.5-2.44" transform="translate(-85.409 -74.636)" fill="#b4a598"/>
      <path id="Path_301" data-name="Path 301" d="M379.775,288.541c.408-.914,1.016-1.262,1.926-.755a1.525,1.525,0,0,1-1.926.755" transform="translate(-90.599 -55.929)" fill="#b4a598"/>
      <path id="Path_302" data-name="Path 302" d="M252.05,64.866c-.644-.545-1.087-1.159-.634-2.078a1.533,1.533,0,0,1,.634,2.078" transform="translate(-60.008 -11.876)" fill="#b4a598"/>
      <path id="Path_303" data-name="Path 303" d="M188.6,3.417a1.561,1.561,0,0,1-1.9-.869c.907-.375,1.492.034,1.9.869" transform="translate(-44.65 -0.042)" fill="#b4a598"/>
      <path id="Path_304" data-name="Path 304" d="M402.647,425.893c3.44-.843,1.058-4.027,2.1-5.874a34.436,34.436,0,0,0,1.743-4.272l.446,3.641c3.337,3.177,6.424,6.072,10.331,6.281,1.84,1.263.839,3.592,2.8,4.447l3.406-2.048,5.332,2.119c.958,3.226.556,6.233.483,9.486h-7.555c-1.7,1.3-.725,2.9-1.612,4.461-4.318-.878-5.852-4.106-6.392-8.479-1.908-1.82-4.725-4.521-6.652-1.692-4,5.868,3.437,7.251,4.776,11.164l3.4.853c-2.614,7.382-8.859,7.337-19.58-.573l-2.751,5.01c-2.29-3.308-3.1-6.705-6.373-7.673-3.505,1.469-1.8,6.35-5.355,8.494-1.2-4.972-7.159-4.986-8.471-10.512l-2.467,3.12c-2.99.691-2-3.3-4.108-3.479-2.743,4.842-2.743,4.842-10.482,2.4-3.264,2.706-6.775,5.2-9.4,8.861-3.78-2.917-1.593-5.941-.5-7.793a17.08,17.08,0,0,1,14.692-8.71c1.455,2.123,3.244,2.5,4.97.588,2.25-2.5,4.654-2.646,7.382-1.18l1,1.35c1.062-.17,1.273-.732,1.245-1.474l1.116-3.906,3.422-3.974,3.521,4.3c3.438.864,6.262.322,8.608-2.189q.2.767.4,1.532c.126.828-.483,1.941,1.214,2.465,2.622-2.684,7.462-2.266,9.313-6.746" transform="translate(-82.119 -81.054)" fill="#b4a598"/>
      <path id="Path_305" data-name="Path 305" d="M274.924,487.341q-.905-33.873-1.8-67.747c-.744-29.809-1.375-59.621-2.192-89.427-.149-5.446-1.295-10.865-.271-16.333l1.113-.129c.419,6.512,1.024,13.018,1.225,19.538.853,27.733,1.577,55.471,2.368,83.207.486,17.053,1.041,34.1,1.5,51.159.138,5.2-.132,10.422,1.488,15.452h-2.169c-.158,1.541-.2,2.931.714,4.132-.547,1.66-1.287.466-1.968.149" transform="translate(-64.531 -61.054)" fill="#b4a598"/>
      <path id="Path_306" data-name="Path 306" d="M349.119,478.546l-1.643,2.189c-2.695,1.838-7.392.306-8.352,5.343l2.562,3.566c-.736,4.344-1.5,8.872-2.4,14.138-7.3-1.846-14.151.092-21.093.761q-.17-1.674-.339-3.347c5.794-3.926,12.122-2.246,18.612-1.684l2.08-9.658c-.76-2.393-2.793-4.056-2.673-7.1,2.483-5.977,8.1-5.245,13.114-5.916l.128,1.707" transform="translate(-75.864 -93.028)" fill="#b4a598"/>
      <path id="Path_307" data-name="Path 307" d="M414.651,494.576l-4,1.846c-1.676,2.849.568,3.914,2.108,5.464-1.273,6.9-2.26,13.931-5.186,21.579-5.358-9.01-6.134-18.684-9.941-27.275.964-1.338,1.795-2.492,2.625-3.643q.409.279.818.554c-1.711,7.826,3.3,13.834,5.1,20.8,2.461-5.834,4.845-11.594-.161-17.169,1.64-3.66,4.418-4.59,7.539-4.929q.552,1.384,1.1,2.77" transform="translate(-94.849 -95.962)" fill="#b4a598"/>
      <path id="Path_308" data-name="Path 308" d="M427.9,407.351c.341-4.125,4.142-4.359,6.368-6.359,1.27-1.1.837-3.365,2.576-4.157.3,1.571-1.145,3.058-.005,5.015,6.082,1.372,12.549,3.1,11.587,12.158-.239,2.237-1.349,5.031-4.8,4.394-1.107-2.547,1.477-5.749-1.721-8.151a6.946,6.946,0,0,1-4.548-2.353,5.461,5.461,0,0,0-4.175,1.878c-2.149-.293-3.135-2.755-5.278-2.427" transform="translate(-102.053 -77.348)" fill="#b4a598"/>
      <path id="Path_309" data-name="Path 309" d="M438.764,371q.094-1.082.189-2.163c5.7,1.1,5.7,1.1,11.84-4.555-.331,4.594-2.439,7.815-4.558,10.793-3.706.382-5.263-2.468-7.472-4.075" transform="translate(-104.637 -70.968)" fill="#b4a598"/>
      <path id="Path_310" data-name="Path 310" d="M420.708,352.813l3.172-2.8c3.246.8,4.824,3.591,6.656,5.975-.237,1.922-1.146,2.763-3.1,2.689a16.324,16.324,0,0,0-6.724-5.86" transform="translate(-100.34 -68.17)" fill="#b4a598"/>
      <path id="Path_311" data-name="Path 311" d="M330.865,458.417c1.776-2.761,3.566-5.5,7.1-5.934,1.379.545,2,1.549,1.742,3.325-1.774,2.349-4,4.167-7.139,4.408a2.041,2.041,0,0,0-1.7-1.8" transform="translate(-78.959 -88.254)" fill="#b4a598"/>
      <path id="Path_312" data-name="Path 312" d="M315.386,507.628a1.924,1.924,0,0,1-2.714.662,1.9,1.9,0,0,1,2.714-.662" transform="translate(-74.63 -99.001)" fill="#b4a598"/>
      <path id="Path_313" data-name="Path 313" d="M361.072,402.678l.425,1.882-1.373-.616.948-1.266" transform="translate(-85.922 -78.493)" fill="#b4a598"/>
      <path id="Path_314" data-name="Path 314" d="M425.182,411.1l1.441.043q-.389.824-.778,1.648l-.663-1.692" transform="translate(-101.405 -80.144)" fill="#b4a598"/>
      <path id="Path_315" data-name="Path 315" d="M77.926,141.211a216.874,216.874,0,0,1,.21,30.712c-.2,4.248-.529,8.49-.8,12.734-1.984,10.094-1.139,20.23-.408,30.365-.357,12.306-.69,24.614-1.088,36.918-.1,3.057-.413,6.106-.631,9.161-4.13-.3-7.151,3.173-11.317,3.382-6.489.327-12.249-.663-17.107-5.542-1.833-1.842-1.975-3.858-1.022-6.963,8.075,3.637,15.694,2.816,21.669-4.318,1.974-2.355,2.237-5.823,1.274-9.632-6.49.023-11.913-1.818-12.138-10.837a25.714,25.714,0,0,0,4.284.576c8.057-.43,14.471-1.306,14.174-13.8-.376-15.754.376-31.538.642-47.309,2.649-3.073,1.084-6.566.574-9.753a27.581,27.581,0,0,1,1.681-15.7" transform="translate(-10.973 -27.247)" fill="#b4a598"/>
      <path id="Path_316" data-name="Path 316" d="M89.092,121c.463,4,1.135,8.013-.515,11.909-.492-4-1.3-8.019.515-11.909" transform="translate(-21.154 -23.286)" fill="#b4a598"/>
      <path id="Path_317" data-name="Path 317" d="M83.847,80.158a13.7,13.7,0,0,1,.1,8.095,8.945,8.945,0,0,1-.1-8.095" transform="translate(-19.954 -15.28)" fill="#b4a598"/>
      <path id="Path_318" data-name="Path 318" d="M88.3,107.995c1.177.463,1.423,1.234.69,2.325a1.992,1.992,0,0,1-.69-2.325" transform="translate(-21.212 -20.736)" fill="#b4a598"/>
      <path id="Path_319" data-name="Path 319" d="M85.265,92.9c.857.269,1.27.776.841,1.736a1.432,1.432,0,0,1-.841-1.736" transform="translate(-20.501 -17.779)" fill="#b4a598"/>
      <path id="Path_320" data-name="Path 320" d="M63.553,475.3c-3.726-3.13-4.3-8.785-9.046-11.788H51.638c-2.3-13.231-.514-26.615-1.169-39.227-3.191-1.94-5.719-.942-8.036-1.563.828-1.438-1.683-2.208-.661-3.683l7.478.756c6.035,3.759,5.477,7.988,3.942,13.787-2.244,8.477-.286,17.506-.785,26.143,8.632,1.5,9.968,9.366,13.172,15.49l-2.026.086" transform="translate(-10.101 -81.699)" fill="#b4a598"/>
      <path id="Path_321" data-name="Path 321" d="M82.463,324.185c-1.092,19.951.579,40-1.566,59.884-.915,8.474.544,17.016-1.336,25.378-1.045-6.225-.452-12.5-.4-18.74.141-16.666.5-33.33.831-49.993.1-5.174.437-10.342.618-15.515a2.757,2.757,0,0,1,1.366-2.64c.13.252.261.506.388.753-.037.091-.116.2-.1.285a4.576,4.576,0,0,0,.2.589" transform="translate(-19.007 -62.79)" fill="#b4a598"/>
      <path id="Path_322" data-name="Path 322" d="M67.064,400.094c-.8-2.455-2.87-2.394-4.785-2.914a29.938,29.938,0,0,1-4.934-2.323c.656-2.122,4.03-.711,3.431-3.65,1.74-.084,1.5,1.955,2.533,2.635,2.747,1.143,5.5,1.954,8.414-.474.344,4.356-3.908,4.065-4.659,6.726" transform="translate(-13.866 -76.244)" fill="#b4a598"/>
      <path id="Path_323" data-name="Path 323" d="M59.24,389.741,54.8,391.382q-.786-.647-1.567-1.294c-.235-2.1-.151-4.039,2.354-4.814a5.174,5.174,0,0,1,3.656,4.468" transform="translate(-12.867 -75.082)" fill="#b4a598"/>
      <path id="Path_324" data-name="Path 324" d="M76.2,492.457c1.226,1.457.905,3.112.64,5.3-2.149-1.879-3.8-3.608-4.66-6.061l1.737-.862,2.283,1.624" transform="translate(-17.397 -95.771)" fill="#b4a598"/>
      <path id="Path_325" data-name="Path 325" d="M11.691,356.064c-1.337-1.422-2.121-2.987-1.164-5a5.76,5.76,0,0,1,1.164,5" transform="translate(-2.624 -68.376)" fill="#b4a598"/>
      <path id="Path_326" data-name="Path 326" d="M40.934,416.233a2.9,2.9,0,0,1-.1-4.232,4.707,4.707,0,0,1,.1,4.232" transform="translate(-9.73 -80.32)" fill="#b4a598"/>
      <path id="Path_327" data-name="Path 327" d="M10.507,342.345a1.714,1.714,0,0,1,.524-2.594,2.012,2.012,0,0,1-.524,2.594" transform="translate(-2.627 -66.159)" fill="#b4a598"/>
      <path id="Path_328" data-name="Path 328" d="M15.553,363.586a1.386,1.386,0,0,1-1.251-1.815l1.251,1.815" transform="translate(-3.612 -70.475)" fill="#b4a598"/>
      <path id="Path_329" data-name="Path 329" d="M34.837,450.6a3.22,3.22,0,0,1-.208,3.655c-.96-.8-1.921-1.609-2.925-2.451-4.725,1.162-6.2,4.248-5.154,8.966a7.027,7.027,0,0,1-2.156-8.6,9.215,9.215,0,0,1,8.145-5.692c2.038.911.472,3.429,2.3,4.125" transform="translate(-5.865 -87.077)" fill="#b4a598"/>
      <path id="Path_330" data-name="Path 330" d="M27.659,465.826c1.511.567,3.31-1.858,4.813.68-1.465,3.223-4.225,2.2-6.65,2.2q.918-1.439,1.837-2.875" transform="translate(-6.364 -90.771)" fill="#b4a598"/>
      <path id="Path_331" data-name="Path 331" d="M399.152,486.974q.064,1.2.129,2.4a2.944,2.944,0,0,1-2.755-1.613q1.313-.393,2.627-.792" transform="translate(-94.585 -95.014)" fill="#b4a598"/>
      <path id="Path_332" data-name="Path 332" d="M390.072,486.084c1.449-.973,2.489-.212,3.444.9-1.195-.108-2.47.13-3.444-.9" transform="translate(-93.05 -94.753)" fill="#b4a598"/>
      <path id="Path_333" data-name="Path 333" d="M383.031,483.958c.885-.9,1.193-.256,1.423.593l-1.423-.593" transform="translate(-91.374 -94.338)" fill="#b4a598"/>
      <path id="Path_334" data-name="Path 334" d="M149.914,97.568l-.345.054-.351,0c-.229-1.13-.941-1.118-1.769-.834a31.256,31.256,0,0,1,1.84-12.624c1.168-3.267,1.144-7.683-2.32-10.565-1.365-1.135-1.266-2.777-1.035-4.391,5.368.031,9.315-4.531,14.455-5.373,2.037,10.237,7.9,10.622,16.019,3,.566,4.8-3.035,9.317-7.955,11.1-4.7,1.7-9.663-1.909-14.485,1.464-2.854,5.439-3.734,11.729-4.054,18.167" transform="translate(-34.916 -12.081)" fill="#b4a598"/>
      <path id="Path_335" data-name="Path 335" d="M146.338,140.094c1.478,1.137,1.4,2.422.328,3.8a3.526,3.526,0,0,1-.328-3.8" transform="translate(-34.951 -27.028)" fill="#b4a598"/>
      <path id="Path_336" data-name="Path 336" d="M146.953,107.861c.477,1,.52,1.872-.644,2.377a1.51,1.51,0,0,1,.644-2.377" transform="translate(-34.958 -20.71)" fill="#b4a598"/>
      <path id="Path_337" data-name="Path 337" d="M220.255,383.921c1.872,14.187,1.681,28.42,1.5,44.229,1.1,20.164,2.294,41.926,3.485,63.7,1.088.8,1.587-.186,2.207-.761,2.786,3.423-.711,3.8-1.977,5.215-1.91-.466-1.9-1.894-1.974-3.223q-1.2-22.818-2.367-45.639-1.485-30.014-2.861-60.035a21.338,21.338,0,0,1,.415-3.53l1.573.05" transform="translate(-52.162 -74.807)" fill="#b4a598"/>
      <path id="Path_338" data-name="Path 338" d="M232.557,436.851c-1.9-12.227.109-24.46.1-36.689-.01-20.506.936-41.012,1.479-61.518,3.086-2.541.321-6.849,2.613-9.627-.174,11.475-.251,22.95-.542,34.419-.319,12.569-.786,25.134-1.282,37.7-.431,10.925-.971,21.845-1.525,32.763a13.393,13.393,0,0,1-.847,2.956" transform="translate(-55.37 -64.055)" fill="#b4a598"/>
      <path id="Path_339" data-name="Path 339" d="M218.691,352.14c.805,6.3,1.763,12.581,1.006,18.968l-1.641-.08A158.991,158.991,0,0,1,216.716,342c2.288,3.029-.778,7.214,1.975,10.139" transform="translate(-51.745 -66.6)" fill="#b4a598"/>
      <path id="Path_340" data-name="Path 340" d="M214.614,294.085c1.509,3.878,1,7.825.365,11.774-1.226-3.888-.9-7.828-.365-11.774" transform="translate(-51.18 -57.209)" fill="#b4a598"/>
      <path id="Path_341" data-name="Path 341" d="M215.73,320.208a17.664,17.664,0,0,1,.225,10.112,16.968,16.968,0,0,1-.225-10.112" transform="translate(-51.403 -62.329)" fill="#b4a598"/>
      <path id="Path_342" data-name="Path 342" d="M238.963,301.552c-2.17-2.548-2.208-5.52-1.544-8.631,1.668,2.649.822,5.8,1.544,8.631" transform="translate(-56.631 -56.981)" fill="#b4a598"/>
      <path id="Path_343" data-name="Path 343" d="M238.652,314.458c-.826-1.857-1.071-3.678.3-5.394.473,1.836.783,3.659-.3,5.394" transform="translate(-56.854 -60.145)" fill="#b4a598"/>
      <path id="Path_344" data-name="Path 344" d="M244.452,270.987c-1.843-2.028-.612-3.583.709-5.125q-.2,2.153-.4,4.309-.154.409-.31.816" transform="translate(-58.172 -51.678)" fill="#b4a598"/>
      <path id="Path_345" data-name="Path 345" d="M236.973,282.545c-.994-1.034-.315-1.248.594-1.348q-.3.675-.594,1.348" transform="translate(-56.498 -54.683)" fill="#b4a598"/>
      <path id="Path_346" data-name="Path 346" d="M236.981,291.552l-.32-.07.219-.239.1.309" transform="translate(-56.54 -56.652)" fill="#b4a598"/>
      <path id="Path_347" data-name="Path 347" d="M154.858,413.877c.235-10.968.447-21.936.733-32.9.04-1.5-.494-3.331,1.347-4.251.99,11.577-.531,23.11-.589,34.668a2.27,2.27,0,0,1-1.491,2.488" transform="translate(-37.073 -73.405)" fill="#b4a598"/>
      <path id="Path_348" data-name="Path 348" d="M157.045,278.89a8.088,8.088,0,0,1-.428,6.632c-1.127-2.03-.427-4.243-.575-6.371l.017-17.048c1.838-6.4.405-12.951.675-19.419.9-21.625,1.168-43.28,1.577-64.925.069-3.661.973-7.5-1.135-10.934-3.483-1.1-5.474,1.29-6.489,2.245v95.578l.2,14.5c-.284,5.187-.9,10.382-.79,15.56.347,15.855,1.154,31.7,1.446,47.556.262,14.229.081,28.467.1,42.7q-.226,2.663-.452,5.326l-.968.071c-.284-3.424-.79-6.848-.815-10.274-.1-13.911-.037-27.823-.085-41.736a15.228,15.228,0,0,0-.638-3.053q-.11-3.607-.221-7.214-.271-22.555-.527-45.11c-.014-1.313.194-2.629.3-3.944l.042-3.245c-.145-3.856-.529-7.722-.395-11.566.813-23.356-.779-46.671-.876-70.009-.04-9.476.243-18.955.378-28.434,1.249,1.03,2.182.693,3.453-.313,2.6-2.061,4.811-4.945,8.414-5.255,2.638,1.271-.735,4.095,1.282,5.526l.137,3.216q-.44,19.6-.881,39.2-.607,27.158-1.233,54.315c0,.175-.04,10.2-.226,10.368Z" transform="translate(-35.202 -30.971)" fill="#b4a598"/>
      <path id="Path_349" data-name="Path 349" d="M212.652,254.939c1.289,1.757,1.084,3.621.359,5.521-1.338-1.754-.913-3.633-.359-5.521" transform="translate(-50.701 -49.537)" fill="#b4a598"/>
      <path id="Path_350" data-name="Path 350" d="M320.614,157.9c.014.285.027.568.041.854l-.248.808q-4.063,4.4-8.127,8.8c-8.943,5.339-17.511,3.762-25.877-1.558-.29-2.166-2.067-3.93-1.529-6.319,1.6-.992,4.481,1.7,5.156-1.981l30.583-.606m-28.74,2.4a5.274,5.274,0,0,0,4.957,4.728c6.539.589,13.255,1.178,19.767-4.728Z" transform="translate(-67.99 -30.517)" fill="#b4a598"/>
      <path id="Path_351" data-name="Path 351" d="M245.754,155.656c-4.493-3.614-9.031-6.785-7.5-13.366.409-1.757,1.426-3.524,4.15-2.923,1.517,3.323,1.52,7.607,4.13,10.578,4.178,1.416,7.994-.856,11.9-1.21,1.389,5.433-4.463,8.434-12.676,6.921" transform="translate(-56.847 -26.862)" fill="#b4a598"/>
      <path id="Path_352" data-name="Path 352" d="M195.29,88.149l1.556-.041q0,1.023.008,2.047-.786,1.368-1.573,2.732c-.125.105-.247.215-.364.33-8.2-1.13-8.2-1.13-11.584,1.59.5,1.569,3.064,1.689,2.452,4.5-3.325,2.337-5.637-1.624-8.709-2.109,4.888-2.651,7.459-9.811,14.449-7.46.19.851.562,1.483,1.52,1.43,1.19-.066,1.372-.973,1.474-1.95l.771-1.072" transform="translate(-42.36 -16.839)" fill="#b4a598"/>
      <path id="Path_353" data-name="Path 353" d="M206.258,94.795a1.6,1.6,0,0,1-.018,2.652,2.2,2.2,0,0,1-3.082.092,29.491,29.491,0,0,1-2.668-3.2c.117-.113.238-.223.364-.328,1.849-.5,3.239.02,3.707,2.272l1.7-1.487" transform="translate(-47.933 -17.961)" fill="#b4a598"/>
      <path id="Path_354" data-name="Path 354" d="M286.836,156.9l-2.011.7c-.979.609-.556,1.427-.483,2.174-3.758-2.609-.658-3.879.953-5.441a2.462,2.462,0,0,0,1.432,2.59Z" transform="translate(-67.463 -29.818)" fill="#b4a598"/>
      <path id="Path_355" data-name="Path 355" d="M247.929,261.61c3.205-7.165,9.848-3.792,14.116-5.588,2.4.494,3.088,3.232,5.272,2.164.835,2.016,2.6,3.732,1.876,6.266-1.567,1.927-2.8.949-4.174-.307-3.124-2.849-6.073-6.632-10.457-1.539-1.1,1.282-2.65.512-2.677-1.652.073-.149.147-.3.246-.494l-.489.237-3.712.914" transform="translate(-59.222 -49.749)" fill="#b4a598"/>
      <path id="Path_356" data-name="Path 356" d="M365.363,241.037c3.317,2.569,1,5.871,1.036,8.867-2.444,1.537-4.019,4.891-8.187,4.046-.074-5.913,6.953-7.48,7.151-12.912" transform="translate(-85.467 -46.812)" fill="#b4a598"/>
      <path id="Path_357" data-name="Path 357" d="M372.605,252.721c1.112-.621,2.066-.62,2.676.75a2.607,2.607,0,0,1-2.676-.75" transform="translate(-88.893 -49.024)" fill="#b4a598"/>
      <path id="Path_358" data-name="Path 358" d="M357.946,226.96c.9-.9,1.33-.337,1.64.592l-1.64-.592" transform="translate(-85.404 -43.964)" fill="#b4a598"/>
      <path id="Path_359" data-name="Path 359" d="M406.9,393.141q-.138,4.283-.277,8.562c-.78-2.887-1.1-5.755.277-8.562" transform="translate(-96.83 -76.624)" fill="#b4a598"/>
      <path id="Path_360" data-name="Path 360" d="M406.8,387.2a2.063,2.063,0,0,1,.179,2.944,1.829,1.829,0,0,1-.179-2.944" transform="translate(-96.874 -75.459)" fill="#b4a598"/>
      <path id="Path_361" data-name="Path 361" d="M304.071,349.1c5.573,1.84,12.028,2.385,13.356,10.531,6.5.162,13.112-.838,18.8,3.383q.672,1.048,1.341,2.1c.054,1.118.3,2.108,1.5,2.44q.263.645.523,1.291.488,4.972.979,9.944l-.409,2.145-.948,1.266,1.373.616c6.935,2.98,13.438,6.345,12.836,16.041-1.792,5.454-5.731,8.9-10.072,11.963a17.081,17.081,0,0,0-14.69,8.709c-1.09,1.853-3.277,4.877.5,7.793,2.629-3.662,6.141-6.154,9.4-8.86,7.739,2.443,7.739,2.443,10.482-2.4,2.11.181,1.119,4.17,4.109,3.478l2.467-3.12c1.311,5.526,7.269,5.54,8.471,10.512,3.555-2.143,1.85-7.025,5.355-8.494,3.268.966,4.083,4.364,6.373,7.673l2.751-5.01c10.721,7.911,16.965,7.956,19.58.573l-3.4-.853c-1.34-3.913-8.772-5.3-4.776-11.165,1.927-2.828,4.744-.127,6.652,1.692.54,4.373,2.074,7.6,6.392,8.479.887-1.566-.088-3.164,1.612-4.461h7.555c.074-3.254.475-6.261-.482-9.486l-5.332-2.119-3.406,2.047c-1.964-.854-.964-3.183-2.8-4.446-3.908-.209-6.995-3.1-10.331-6.281-.126-1.027-.285-2.335-.445-3.643q.033-1.02.066-2.04.389-.825.779-1.648l.632-1c2.144-.33,3.13,2.133,5.279,2.427a5.454,5.454,0,0,1,4.174-1.878,6.959,6.959,0,0,0,4.548,2.353c3.2,2.4.614,5.6,1.721,8.151,3.455.636,4.565-2.158,4.8-4.395.963-9.06-5.5-10.787-11.586-12.158-1.141-1.958.309-3.444,0-5.015,1.226-2.785,3.732-4.347,6.258-6.616-4.158-.609-7.727-1.114-8.621-5.819-.512-2.69-1.01-5.249,1.7-7.016,2.208,1.606,3.766,4.457,7.472,4.075,2.118-2.978,4.226-6.2,4.558-10.793-6.138,5.657-6.138,5.657-11.841,4.555l-3.4-3.167c-2.461,2.358-4.541,5.154-8.013,5.65l-8.031-.82-1.51-2.434c-1.065-5.263.988-9.079,5-11.984l2-.473a16.306,16.306,0,0,1,6.724,5.86c1.957.072,2.867-.769,3.1-2.69-1.832-2.385-3.409-5.176-6.655-5.975-1.511-5.165,2.124-7.948,4.67-11.236,2.848-3.129,6.586-1.136,9.844-1.9a16.438,16.438,0,0,1,5.843,7.343c11.683.427,15.605,4.262,15.216,14.6-.389,1.195-1.394,2.271-.575,3.9,5.7-.476,10.642,2.056,15.515,4.834-.437,3.014.934,5.733,1.265,8.614.564,4.905-.688,8.962-5.217,11.307-2.863,1.483-4.842-1.965-7.521-1.533-2.125,1.769-1.923,3.484-.175,5.39,3.591,3.919,11.274,2.666,15.022-2.451.953-1.3,1.295-3.3,3.316-3.493V496.157h-7.467a26.748,26.748,0,0,1-7.465,6.241c-5.966-10.3-6.569-22.412-10.673-33.161-1.348-2.607,3.068-5.025.063-7.678l-3.866-5.281c1.071-1.917,2.09-3.755,4.5-4.264,3.627,1.193,7.386,3.418,11.705.833-1.519-2.3-4.362-.648-5.192-3.43,2.016-3.188,4.983-.817,7.457-1.092,2.719-.3,5.608.081,7.266-3.033-7.234,2.7-16.073-11.391-21.764,2.752L415.557,447c-.082-1.409-.165-2.819-.238-4.078-1.753-1.679-3.484-1.9-5.377-.894l-4.564-.269c-1.781-.6-2.557.27-2.711,2.057-.439,1.311-.947,2.536-2.592,2.393-1.007-2.049-2.749-2.4-4.751-2.6-6.451-.63-9,4.184-11.613,8.983-3.12.338-5.9,1.27-7.538,4.929,5.006,5.575,2.623,11.334.161,17.168-1.8-6.968-6.806-12.975-5.095-20.8,2.325-2.7,1.894-4.5-1.564-5.3-.012-.583-.074-1.673-.03-1.678,4.106-.447,6.3-3.884,9.076-6.393,2.394,1.709,5.1.469,7.629.9a4.938,4.938,0,0,0,5.258-.031c2.073.057,3.244-1.327,4.255-2.966.833-.49,1.775-.917,1.013-2.678l-4.82,2.386-.049.024-1.011-.281-1.608-.1c-2.082-2.062,1.6-2.231,1-4.074l-6.779-2.445a.322.322,0,0,0-.549.117c-2-1.772-3.206-.613-4.206,1.282-.136.846.215,1.955-.835,2.152-2.784-.037-3.169-2.322-3.8-4.031-3.383-1.693-5.861,1.656-9,.943l-1.223,3.009-2.182.37c.168-2.03,2.27-3.754.854-6.018-5.672-4.406-9.891-.355-14.248,3.062-3.969-2.206-7.8-2.86-9.889,2.239-.731,1.783-.292,4.1-.387,6.172-5.011.671-10.631-.061-13.114,5.916-.121,3.042,1.913,4.7,2.673,7.1-.668,3.1-1.355,6.293-2.08,9.659-6.489-.562-12.817-2.242-18.612,1.684l-1.238.458a1.9,1.9,0,0,0-2.714.659c-5.83,1.643-10.3,5.883-15.367,8.978l-6.583,3.318-2.275.424c-1.62-5.031-1.35-10.254-1.489-15.453-.453-17.054-1.009-34.105-1.5-51.159-.79-27.736-1.513-55.473-2.367-83.207-.2-6.52-.806-13.026-1.225-19.538,3.109-11.841,8.207-14.653,19.889-10.976,1.337-.206,1.372-1.333,1.514-2.383,3.227-1.494,6.334.37,9.286.031,9.168,14.429,18.1,13.3,27.2-3.38,5.324-1.894,11.093-.268,16.71-.905.673,5.113-3.591,5.263-6.8,7.017,2.076,2.849,3.316,5.81,2.31,9.257-1.865,3.315-6.208,3.444-8.285,6.967,4.565,6.926,5.4,13.544-1.592,19.3l-2.542,1.092-3.857.421-2.275-.317c-2.413-1.212-4.238-3.672-7.414-3.994-1.107,3.08.558,4.621,2.361,6.406,1.827,1.809,4.9,1.279,6.143,3.952-5.858,2.447-11.859,3.556-18.128,2.143-2.531-2.732-5.05-4.05-8.589-1.38-2.759,2.082-6.165,2.081-9.5,1.383-1.308-.274-2.461-1.886-4.262-.7,4.551,5.981,10.423,6.2,16.607,5.329l1.523.226a.9.9,0,0,0,1.516.212m14.55,79.609c3.141-.24,5.365-2.058,7.139-4.408.258-1.776-.363-2.78-1.742-3.326-3.535.433-5.326,3.174-7.1,5.935-1.067,1.3-2.527,2.487-.962,5.594l2.667-3.8m80.125,2.454c7.635.262,14.126,1.9,20.379-.871-6.426.08-13.041-5.288-20.379.871" transform="translate(-65.01 -56.749)" fill="#50483c"/>
      <path id="Path_362" data-name="Path 362" d="M0,235.927a35.368,35.368,0,0,1,11.113-1.91c-5.1-9.667-9.166-18.791-2.636-28.79,6.161-9.433,14.981-11.956,25.205-11.145l2.776-4.128c2.076-.51,4.262,1.622,6.19-1.45-1.129-3.858-2.514-8.312-.811-12.883a24.116,24.116,0,0,1,2.608-2.857c5.167-4.125,10.105-9.108,17.509-6.005l2.963,4.719c-.266,15.771-1.02,31.555-.643,47.308.3,12.493-6.117,13.368-14.173,13.8a25.805,25.805,0,0,1-4.284-.576c.225,9.019,5.648,10.861,12.138,10.837.962,3.809.7,7.277-1.274,9.632-5.976,7.133-13.594,7.955-21.669,4.318-.954,3.105-.812,5.121,1.021,6.963,4.857,4.88,10.618,5.869,17.107,5.542,4.167-.209,7.187-3.687,11.315-3.379.655,8.695-.3,17.3-1.267,25.911a2.759,2.759,0,0,0-1.366,2.64c-.181,5.173-.514,10.341-.618,15.515-.335,16.663-.69,33.328-.831,49.993-.053,6.24-.646,12.515.4,18.737.021,14,0,28,.1,42a15.565,15.565,0,0,1-1.846,8.032l-2.283-1.624-1.042-1.55c-3.205-6.123-4.54-13.993-13.172-15.49.5-8.637-1.459-17.666.785-26.142,1.535-5.8,2.093-10.028-3.943-13.787l-7.478-.756q-.232-.711-.466-1.423a4.709,4.709,0,0,0-.1-4.232c2.339-5.183,5.665-7,11.324-5.315,3.489,1.036,7.794,1.183,10.773-2.517.75-2.66,5-2.369,4.659-6.725-2.912,2.426-5.667,1.615-8.414.474-1.033-.679-.792-2.719-2.534-2.635a4,4,0,0,0-.535-.3,5.174,5.174,0,0,0-3.656-4.467c-2.5.774-2.589,2.71-2.355,4.814-3.143,1.122-6.186-.26-9.278-.416-5.695-3.017-9.563-7.352-9.1-14.134l-10.047-7.344-1.25-1.815q-.812-1.8-1.624-3.608a5.758,5.758,0,0,0-1.164-5l-.023-6.5a2.01,2.01,0,0,0,.524-2.594l.792-1.979a14.985,14.985,0,0,1,3.343-.14c7.8,1.409,12.72-1.11,16.846-8.85-.847-4.182-3.328-4.851-6.314-2.5-8.954,7.043-16.45,3.8-20.3-6.775-1.023-2.809.128-6.532-2.991-8.481Z" transform="translate(-0.219 -32.064)" fill="#50483c"/>
      <path id="Path_363" data-name="Path 363" d="M0,473.118c2.9-.076,5.809-.183,8.714-.221,2.882-.038,5.765-.008,8.487-.008,1.346-2.3.557-5.011,2.477-6.583,2.426.006,5.186,1.028,6.651-2.195-1.5-2.538-3.3-.113-4.814-.68q-.305-.68-.61-1.36c-1.048-4.718.429-7.805,5.154-8.966l2.925,2.453c-.388,7.051,1.106,14.2-.944,21.165-1.136.56-2.269,1.128-3.409,1.676C16.446,482.329,10.108,490.621,0,490V473.118" transform="translate(-0.219 -88.376)" fill="#50483c"/>
      <path id="Path_364" data-name="Path 364" d="M186.909,118.619c-3.29-14.72-12.544-19.383-29.468-14.849-2.182-3.216-.938-6.615-.316-10.086l-4.134-4.723c-5.8,3.231-10.488,2.841-13.316-3.9.32-6.438,1.2-12.728,4.055-18.167,4.822-3.372,9.787.24,14.484-1.464,4.92-1.785,8.522-6.3,7.955-11.1-8.123,7.62-13.982,7.235-16.019-3-5.14.842-9.088,5.4-14.455,5.378-3.018-4.644-8.146-4.964-12.475-5.5-6.273-.771-12.749-1.973-19.114-.09a1.5,1.5,0,0,1-.6-.385q-.363-3.239-.731-6.477a2.011,2.011,0,0,0,.466-2.643,39.422,39.422,0,0,1,9.242-12.572c2.9-2.816,5.727-1.058,8.448.276,1.683.825,3.178,1.752,5.131-.137.012-5.093.549-10.25,7.724-9.607.059-11.269,7.724-14.981,15.625-18.461L150.9.786l2.319-.567c.5-.072,1-.146,1.5-.219l12.007,2.076a1.561,1.561,0,0,0,1.9.869c6.2,2.29,9.95,6.622,10.165,13.591,1.225,1.491,2.669,1.177,4.415,1.4,3.573-4.7,6.72-10.426,13.885-9.739,4.913.47,9.521,1.823,13.37,5.058,8.512,7.156,8.427,14.623-.153,33.752,1.731,1.467,5.032.261,5.778,3.474-.453.918-.01,1.532.634,2.078q.363,1.448.726,2.9l-.825,3.39-.03.034a2.941,2.941,0,0,0-2.137,2.488A33.58,33.58,0,0,0,196.01,57.8c-8.4.641-14.933,4.547-18.4,13.078l-.772,1.072-2.993.52c-6.991-2.353-9.56,4.809-14.449,7.46,3.072.485,5.384,4.446,8.709,2.109.612-2.812-1.948-2.932-2.452-4.5,3.386-2.72,3.386-2.72,11.585-1.593a29.336,29.336,0,0,0,2.669,3.2,2.195,2.195,0,0,0,3.081-.092A1.6,1.6,0,0,0,183,76.4a5.848,5.848,0,0,0-3.831-3.518q0-1.024-.008-2.046a47.42,47.42,0,0,1,4.392-4.36c8.208-6.188,17.006-4.678,25.9-2.659,3.056,4.529,6.158,9.031,7.552,14.544-.33,4.707-1.28,8.869-5.789,11.694-2.307,1.446-2.829,4.729.1,6.916,6.114.059,10.245,2.743,11.678,8.832,1.145.952,2.124,1.526,3.539,1.1a4.833,4.833,0,0,0,2.539-4.437c.219-6.294-5.65-7.417-9.358-11.116,5.7-4.391,4.432-11.025,5.493-16.638,4.4-2.508,8.554-1.684,12.413.047,7.936,3.561,10.366,10.428,8.446,19.573,7.81-1.611,14.7-4.356,21.555-.4l6.912,4.976a1.536,1.536,0,0,0,1.359,1.565q.77.832,1.539,1.665c2.14,3.391,2.461,7.354,3.168,11.2q.01,1.269.019,2.537c-1.357,3.608-.8,7.857-3.324,11.076l-30.583.606-2.667-.905-.109.023c.633-1.546.089-2.368-1.431-2.589-1.612,1.561-4.712,2.831-.955,5.44l.006.012c-.539,2.389,1.239,4.153,1.529,6.319-2.272,4.464-1.582,11.526-9.026,11.452a2.738,2.738,0,0,0-2.712,1.419l-7.562,2.24c-.033.355-.171.7-.063.851,1.528,2.078,6.276,2.756,3.261,6.833s-7.273,5.827-12.159,3.994c-2.642-.991-5.07-2.508-5.446-6.041a3.284,3.284,0,0,0-2.216-2.9l-5.032,2.259c-3.938-.158-5.813-3.329-8.851-6.288-.62,5.923,2.587,9.531,4.117,14.175-3.255,1.368-6.069-.793-8.912-1.2-2.053-.293-1.763-2.888-1.753-4.771.039-7.467-.8-14.971,1-22.95,6.508-3.6,14.674.626,21.3-4.265l-19.65-1.986c-2.834-3.266,1.822-7.755-2.481-10.064m26.675,9.745c8.213,1.513,14.065-1.487,12.676-6.921-3.9.354-7.718,2.626-11.9,1.21-2.61-2.971-2.613-7.255-4.13-10.577-2.724-.6-3.741,1.166-4.15,2.923-1.531,6.581,3.007,9.752,7.5,13.366" transform="translate(-24.677 0.43)" fill="#50483c"/>
      <path id="Path_365" data-name="Path 365" d="M266.864,271.567c-.437-6.311-6.005-11.968-11.865-12.017-3.283-.028-6.566,0-9.848,0q.2-2.155.4-4.309l1.719-2.323,3.712-.914.245.259c.025,2.163,1.572,2.932,2.675,1.651,4.385-5.093,7.334-1.31,10.457,1.539,1.377,1.256,2.607,2.234,4.174.307.724-2.533-1.04-4.249-1.878-6.266a13.983,13.983,0,0,1,5.976-4.4c2.765-1.251-.224-3.341,1.483-6.17,2.7-1.953,5.565-6.083,9.8-8.249,5.031,2.665,5.363,6.786,3.443,11.613,4.779-.681,6.912-5.251,5.2-10.282-.8-2.359-1.529-4.749-2.288-7.125a8.194,8.194,0,0,1,1.867-5.451c8.673-10.918,23.583-10.182,31.024,1.6a31.013,31.013,0,0,0,2.131,2.7l5.816.331,1.64.591,2.88,1.822,2.961,5.682q-.064,1.567-.126,3.134c-.2,5.432-7.226,7-7.152,12.912,4.168.845,5.743-2.509,8.187-4.046l2.781.605a2.6,2.6,0,0,0,2.676.749c9.39,4.382,11.8,9.67,9.274,20.331-1.559,2.332-2.224,5.306-4.561,7.079-.91-.507-1.518-.159-1.926.756-2.348.847-5.205-1.319-7.242,1.364H319.218c-6.575,7.982-11.452,9.449-16.738,4.52-1.576-4.8,1.7-8.375,2.877-12.474,1.67-5.821-.548-9.333-5.627-8.786.093,10.188-2.648,13.695-10.35,13.186-5.591-.369-7.04-4.925-8.445-9.453-1.649-5.313-3.35-6.57-7.148-4.746l3.927,9.6a11.415,11.415,0,0,1-3.778,5.282l-7.073-.6" transform="translate(-58.561 -41.062)" fill="#50483c"/>
      <path id="Path_366" data-name="Path 366" d="M83.5,324.368a4.579,4.579,0,0,1-.2-.589c-.018-.086.061-.194.1-.285a4.223,4.223,0,0,1,.2.585c.017.084-.066.191-.1.288" transform="translate(-20.043 -62.973)" fill="#50483c"/>
      <path id="Path_367" data-name="Path 367" d="M219.372,351.942c1.979-6.008,5.8-9.8,11.823-10.952-.543,20.506-1.489,41.012-1.479,61.518.006,12.229-2,24.462-.1,36.689-1.595,14.449-1.305,28.989-1.9,43.482-.62.575-1.119,1.565-2.207.761-1.191-21.77-2.382-43.533-3.485-63.7.181-15.809.373-30.042-1.5-44.228q-.071-2.3-.143-4.606c.757-6.387-.2-12.673-1.005-18.968" transform="translate(-52.426 -66.402)" fill="#50483c"/>
      <path id="Path_368" data-name="Path 368" d="M157.006,280.694c.147,2.128-.553,4.341.575,6.371.444,16.288-.426,32.53-1.549,48.765-1.841.919-1.308,2.751-1.347,4.251-.287,10.967-.5,21.936-.733,32.9.037,3.464.122,6.928.085,10.391-.013,1.209.484,2.835-1.436,3.135-.014-14.236.168-28.474-.094-42.7-.293-15.857-1.1-31.7-1.446-47.556-.114-5.178.506-10.373.79-15.56l-.2-14.5c0-31.478,0-62.956,0-95.578,1.016-.956,3.007-3.345,6.489-2.246,2.108,3.431,1.2,7.273,1.135,10.934-.41,21.645-.677,43.3-1.577,64.925-.27,6.469,1.162,13.022-.675,19.419Z" transform="translate(-36.166 -32.514)" fill="#50483c"/>
      <path id="Path_369" data-name="Path 369" d="M294.092,160.884h24.724c-6.512,5.906-13.228,5.317-19.767,4.728a5.274,5.274,0,0,1-4.957-4.728" transform="translate(-70.208 -31.102)" fill="#50483c"/>
      <path id="Path_370" data-name="Path 370" d="M252.8,261.777l.489-.237c-.1.2-.173.346-.246.495l-.243-.257" transform="translate(-60.381 -50.83)" fill="#50483c"/>
    </g>
  </g>
</svg>
